<svg width="54" height="24" viewBox="0 0 54 24" fill="none" xmlns="http://www.w3.org/2000/svg">
<rect width="54" height="24" rx="4" fill="#F7A600"/>
<path d="M33 12.998H28V17.998C28 18.2633 27.8946 18.5176 27.7071 18.7052C27.5196 18.8927 27.2652 18.998 27 18.998C26.7348 18.998 26.4804 18.8927 26.2929 18.7052C26.1054 18.5176 26 18.2633 26 17.998V12.998H21C20.7348 12.998 20.4804 12.8927 20.2929 12.7052C20.1054 12.5176 20 12.2633 20 11.998C20 11.7328 20.1054 11.4785 20.2929 11.2909C20.4804 11.1034 20.7348 10.998 21 10.998H26V5.99805C26 5.73283 26.1054 5.47848 26.2929 5.29094C26.4804 5.1034 26.7348 4.99805 27 4.99805C27.2652 4.99805 27.5196 5.1034 27.7071 5.29094C27.8946 5.47848 28 5.73283 28 5.99805V10.998H33C33.2652 10.998 33.5196 11.1034 33.7071 11.2909C33.8946 11.4785 34 11.7328 34 11.998C34 12.2633 33.8946 12.5176 33.7071 12.7052C33.5196 12.8927 33.2652 12.998 33 12.998Z" fill="white"/>
</svg>
