<svg width="24" height="24" viewBox="0 0 24 24" fill="none" xmlns="http://www.w3.org/2000/svg">
<path d="M7 10H11" stroke="#555555" stroke-width="2" stroke-linecap="round" stroke-linejoin="round"/>
<path d="M22.998 12.5C22.998 12.423 23 11.967 22.998 11.935C22.962 11.434 22.533 11.035 21.993 11.002C21.958 11 21.917 11 21.833 11H19.231C17.446 11 16 12.343 16 14C16 15.657 17.447 17 19.23 17H21.833C21.917 17 21.958 17 21.993 16.998C22.533 16.965 22.963 16.566 22.998 16.065C23 16.033 23 15.577 23 15.5" stroke="#555555" stroke-width="2" stroke-linecap="round"/>
<path d="M19 15C19.5523 15 20 14.5523 20 14C20 13.4477 19.5523 13 19 13C18.4477 13 18 13.4477 18 14C18 14.5523 18.4477 15 19 15Z" fill="#555555"/>
<path d="M11 21.9999H14C17.771 21.9999 19.657 21.9999 20.828 20.8279C21.637 20.0199 21.888 18.8719 21.965 16.9999M21.965 10.9999C21.887 9.12795 21.637 7.97995 20.828 7.17195C19.657 5.99995 17.771 5.99995 14 5.99995H11C7.229 5.99995 5.343 5.99995 4.172 7.17195C3.001 8.34395 3 10.2289 3 13.9999C3 17.7709 3 19.6569 4.172 20.8279C4.825 21.4819 5.7 21.7709 7 21.8979M7 5.99995L10.735 3.52295C11.2604 3.18165 11.8735 3 12.5 3C13.1265 3 13.7396 3.18165 14.265 3.52295L18 5.99995" stroke="#555555" stroke-width="2" stroke-linecap="round"/>
</svg>
