<svg width="14" height="14" viewBox="0 0 14 14" fill="none" xmlns="http://www.w3.org/2000/svg">
<circle cx="7" cy="7" r="7" fill="#F7A600"/>
<path fill-rule="evenodd" clip-rule="evenodd" d="M10.3243 4.77838C10.5052 4.93821 10.5221 5.21471 10.3623 5.39671L7.00809 9.18838C6.96935 9.23217 6.92223 9.26776 6.8695 9.29304C6.81678 9.31832 6.75952 9.33277 6.70112 9.33554C6.64271 9.33832 6.58435 9.32936 6.52946 9.30919C6.47458 9.28902 6.4243 9.25806 6.38159 9.21812L4.19409 7.17646C4.10993 7.09715 4.0606 6.98776 4.05687 6.87218C4.05314 6.75661 4.09531 6.64426 4.17418 6.55969C4.25304 6.47512 4.36218 6.42521 4.47773 6.42087C4.59328 6.41654 4.70586 6.45812 4.79084 6.53654L6.65167 8.26904L9.70834 4.81571C9.74645 4.7726 9.79269 4.73743 9.84441 4.71221C9.89613 4.687 9.95232 4.67223 10.0098 4.66876C10.0672 4.6653 10.1248 4.67319 10.1791 4.692C10.2335 4.71081 10.2836 4.74016 10.3267 4.77838H10.3243Z" fill="white"/>
</svg>
