<svg width="24" height="24" viewBox="0 0 24 24" fill="none" xmlns="http://www.w3.org/2000/svg">
<path d="M12.7204 10.7999C12.2404 10.6799 11.7604 10.4399 11.4004 10.0799C11.0404 9.9599 10.9204 9.5999 10.9204 9.3599C10.9204 9.1199 11.0404 8.7599 11.2804 8.6399C11.6404 8.3999 12.0004 8.1599 12.3604 8.2799C13.0804 8.2799 13.6804 8.6399 14.0404 9.1199L15.1204 7.6799C14.7604 7.3199 14.4004 7.0799 14.0404 6.8399C13.6804 6.5999 13.2004 6.4799 12.7204 6.4799V4.7999H11.2804V6.4799C10.6804 6.5999 10.0804 6.9599 9.60039 7.4399C9.12039 8.0399 8.76039 8.7599 8.88039 9.4799C8.88039 10.1999 9.12039 10.9199 9.60039 11.3999C10.2004 11.9999 11.0404 12.3599 11.7604 12.7199C12.1204 12.8399 12.6004 13.0799 12.9604 13.3199C13.2004 13.5599 13.3204 13.9199 13.3204 14.2799C13.3204 14.6399 13.2004 14.9999 12.9604 15.3599C12.6004 15.7199 12.1204 15.8399 11.7604 15.8399C11.2804 15.8399 10.6804 15.7199 10.3204 15.3599C9.96039 15.1199 9.60039 14.7599 9.36039 14.3999L8.16039 15.7199C8.52039 16.1999 8.88039 16.5599 9.36039 16.9199C9.96039 17.2799 10.6804 17.6399 11.4004 17.6399V19.1999H12.7204V17.3999C13.4404 17.2799 14.0404 16.9199 14.5204 16.4399C15.1204 15.8399 15.4804 14.8799 15.4804 14.0399C15.4804 13.3199 15.2404 12.4799 14.6404 11.9999C14.0404 11.3999 13.4404 11.0399 12.7204 10.7999ZM12.0004 2.3999C6.72039 2.3999 2.40039 6.7199 2.40039 11.9999C2.40039 17.2799 6.72039 21.5999 12.0004 21.5999C17.2804 21.5999 21.6004 17.2799 21.6004 11.9999C21.6004 6.7199 17.2804 2.3999 12.0004 2.3999ZM12.0004 20.2799C7.44039 20.2799 3.72039 16.5599 3.72039 11.9999C3.72039 7.4399 7.44039 3.7199 12.0004 3.7199C16.5604 3.7199 20.2804 7.4399 20.2804 11.9999C20.2804 16.5599 16.5604 20.2799 12.0004 20.2799Z" fill="white"/>
</svg>
