<svg width="24" height="24" viewBox="0 0 24 24" fill="none" xmlns="http://www.w3.org/2000/svg">
<mask id="path-1-inside-1_8295_37035" fill="white">
<path d="M2 15.2271C2 14.9509 2.22386 14.7271 2.5 14.7271H8.36417V21.9997H2.5C2.22386 21.9997 2 21.7758 2 21.4997V15.2271Z"/>
</mask>
<path d="M2 15.2271C2 14.9509 2.22386 14.7271 2.5 14.7271H8.36417V21.9997H2.5C2.22386 21.9997 2 21.7758 2 21.4997V15.2271Z" stroke="white" stroke-width="3" mask="url(#path-1-inside-1_8295_37035)"/>
<mask id="path-2-inside-2_8295_37035" fill="white">
<path d="M15.6367 16.5454H21.5009C21.777 16.5454 22.0009 16.7693 22.0009 17.0454V21.4999C22.0009 21.776 21.777 21.9999 21.5009 21.9999H15.6367V16.5454Z"/>
</mask>
<path d="M15.6367 16.5454H21.5009C21.777 16.5454 22.0009 16.7693 22.0009 17.0454V21.4999C22.0009 21.776 21.777 21.9999 21.5009 21.9999H15.6367V16.5454Z" stroke="white" stroke-width="3" mask="url(#path-2-inside-2_8295_37035)"/>
<mask id="path-3-inside-3_8295_37035" fill="white">
<path d="M8.36719 13.4092C8.36719 13.133 8.59105 12.9092 8.86719 12.9092H15.1405C15.4167 12.9092 15.6405 13.133 15.6405 13.4092V22H8.36719V13.4092Z"/>
</mask>
<path d="M8.36719 13.4092C8.36719 13.133 8.59105 12.9092 8.86719 12.9092H15.1405C15.4167 12.9092 15.6405 13.133 15.6405 13.4092V22H8.36719V13.4092Z" stroke="#F7A600" stroke-width="3" mask="url(#path-3-inside-3_8295_37035)"/>
<path d="M12.004 8.36367C9.38558 8.36367 8.92191 5.75461 8.84008 3.68463C8.8169 3.10918 8.80553 2.821 9.02191 2.5551C9.23784 2.28874 9.4965 2.2451 10.0143 2.15783C10.672 2.0501 11.3375 1.99734 12.004 2.0001C12.815 2.0001 13.4827 2.07147 13.9937 2.15783C14.5115 2.2451 14.7701 2.28874 14.9865 2.5551C15.2029 2.82146 15.1911 3.10918 15.1683 3.68463C15.0865 5.75461 14.6228 8.36367 12.0044 8.36367H12.004Z" stroke="#F7A600"/>
<path d="M11.5469 4.72722L12.2288 4.04541V5.86357" stroke="#F7A600" stroke-linecap="round" stroke-linejoin="round"/>
<path d="M15.1811 3.36328L15.6125 3.50692C16.0625 3.65691 16.2875 3.73191 16.4162 3.91055C16.5448 4.08918 16.5448 4.32691 16.5448 4.80054V4.83372C16.5448 5.22463 16.5448 5.42053 16.4507 5.58053C16.3566 5.74053 16.1852 5.83553 15.8434 6.02598L14.4992 6.77234M8.81688 3.36328L8.38548 3.50692C7.93544 3.65691 7.71042 3.73191 7.58177 3.91055C7.45312 4.08918 7.45312 4.32691 7.45312 4.80054V4.83372C7.45312 5.22463 7.45313 5.42053 7.54722 5.58053C7.64132 5.74053 7.8127 5.83553 8.15455 6.02598L9.49875 6.77234" stroke="#F7A600"/>
<path d="M12 8.36328V9.7269" stroke="#F7A600" stroke-linecap="round"/>
<path d="M13.5922 11.0905H10.4102L10.5647 10.3196C10.5853 10.2165 10.6409 10.1239 10.7222 10.0572C10.8034 9.99061 10.9052 9.95417 11.0102 9.9541H12.9922C13.0972 9.95417 13.199 9.99061 13.2802 10.0572C13.3615 10.1239 13.4171 10.2165 13.4377 10.3196L13.5922 11.0905Z" stroke="#F7A600" stroke-linecap="round" stroke-linejoin="round"/>
<path d="M14.7284 11.0908H9.27344" stroke="#F7A600" stroke-linecap="round"/>
</svg>
