<svg width="16" height="16" viewBox="0 0 16 16" fill="none" xmlns="http://www.w3.org/2000/svg">
<path d="M13.9982 6.66634C13.9916 5.21634 13.9382 4.43101 13.511 3.91901C13.0232 3.33301 12.2371 3.33301 10.666 3.33301H8.99935C7.42824 3.33301 6.64213 3.33301 6.15435 3.91901C5.66602 4.50434 5.66602 5.44767 5.66602 7.33301V10.6663C5.66602 12.5517 5.66602 13.495 6.15435 14.0803C6.64213 14.6663 7.42824 14.6663 8.99935 14.6663H10.666C12.2371 14.6663 13.0232 14.6663 13.511 14.0803C13.9993 13.495 13.9993 12.5517 13.9993 10.6663V9.99967" stroke="#F7A600" stroke-linecap="round"/>
<path d="M4 6.66634V10.6663C4 11.1968 4.17559 11.7055 4.48816 12.0806C4.80072 12.4556 5.22464 12.6663 5.66667 12.6663M12.3333 3.33301C12.3333 2.80257 12.1577 2.29387 11.8452 1.91879C11.5326 1.54372 11.1087 1.33301 10.6667 1.33301H8.44444C6.34944 1.33301 5.30167 1.33301 4.65111 2.11434C4.28778 2.54967 4.12722 3.13301 4.05667 3.99967" stroke="#F7A600" stroke-linecap="round"/>
</svg>
