<svg width="35" height="35" viewBox="0 0 35 35" fill="none" xmlns="http://www.w3.org/2000/svg">
<path d="M16.625 0.793945C17.1665 0.481338 17.8335 0.481338 18.375 0.793945L31.5303 8.38867C32.0716 8.70121 32.4051 9.27924 32.4053 9.9043V25.0957C32.4051 25.7208 32.0716 26.2988 31.5303 26.6113L18.375 34.2061C17.8335 34.5187 17.1665 34.5187 16.625 34.2061L3.46973 26.6113C2.92839 26.2988 2.59487 25.7208 2.59473 25.0957V9.9043C2.59487 9.27924 2.92839 8.70121 3.46973 8.38867L16.625 0.793945Z" fill="#303030" stroke="#F7A600" stroke-width="0.5"/>
<path d="M27.0827 13.822V13.8919C27.0827 14.7161 27.0827 15.1291 26.8843 15.4665C26.6859 15.8038 26.3246 16.0041 25.604 16.4056L24.844 16.8273C25.3673 15.0563 25.5426 13.153 25.6068 11.5258L25.6164 11.314L25.6183 11.2642C26.2422 11.4807 26.593 11.6427 26.8115 11.9455C27.0827 12.3222 27.0827 12.8224 27.0827 13.822ZM7.91602 13.822V13.8919C7.91602 14.7161 7.91602 15.1291 8.11439 15.4665C8.31277 15.8038 8.67406 16.0041 9.39472 16.4056L10.1556 16.8273C9.63143 15.0563 9.45606 13.153 9.39185 11.5258L9.38227 11.314L9.38131 11.2642C8.75647 11.4807 8.40572 11.6427 8.18722 11.9455C7.91602 12.3222 7.91602 12.8234 7.91602 13.822Z" fill="#F7A600"/>
<path fill-rule="evenodd" clip-rule="evenodd" d="M21.6949 8.24926C20.3084 8.02213 18.9053 7.9109 17.5003 7.91672C15.7916 7.91672 14.3828 8.06718 13.3056 8.24926C12.2141 8.43326 11.6688 8.52526 11.2127 9.08685C10.7574 9.64843 10.7814 10.2551 10.8293 11.4683C10.9951 15.6351 11.894 20.8408 16.7815 21.3008V24.6876H15.4111C15.1896 24.6877 14.9751 24.7645 14.8038 24.905C14.6326 25.0455 14.5153 25.2409 14.4719 25.4581L14.2899 26.3646H11.7503C11.5597 26.3646 11.3768 26.4404 11.242 26.5752C11.1073 26.7099 11.0315 26.8928 11.0315 27.0834C11.0315 27.274 11.1073 27.4568 11.242 27.5916C11.3768 27.7264 11.5597 27.8021 11.7503 27.8021H23.2503C23.4409 27.8021 23.6237 27.7264 23.7585 27.5916C23.8933 27.4568 23.969 27.274 23.969 27.0834C23.969 26.8928 23.8933 26.7099 23.7585 26.5752C23.6237 26.4404 23.4409 26.3646 23.2503 26.3646H20.7107L20.5286 25.4581C20.4852 25.2409 20.3679 25.0455 20.1967 24.905C20.0255 24.7645 19.8109 24.6877 19.5894 24.6876H18.219V21.3008C23.1065 20.8408 24.0064 15.6361 24.1712 11.4683C24.2191 10.2551 24.2441 9.64747 23.7879 9.08685C23.3317 8.52526 22.7864 8.43326 21.6949 8.24926Z" fill="#F7A600"/>
</svg>
