<svg width="24" height="24" viewBox="0 0 24 24" fill="none" xmlns="http://www.w3.org/2000/svg">
<path d="M12.0039 9.00732C10.8989 9.00732 10.0039 9.67932 10.0039 10.5073C10.0039 11.3363 10.8989 12.0073 12.0039 12.0073C13.1089 12.0073 14.0039 12.6793 14.0039 13.5073C14.0039 14.3363 13.1079 15.0073 12.0039 15.0073M12.0039 9.00732C12.8739 9.00732 13.6159 9.42432 13.8899 10.0073M12.0039 9.00732V8.00732M12.0039 15.0073C11.1339 15.0073 10.3919 14.5903 10.1179 14.0073M12.0039 15.0073V16.0073" stroke="#F7A600" stroke-width="1.5" stroke-linecap="round" stroke-linejoin="round"/>
<path d="M13 2.50732H12C7.522 2.50732 5.282 2.50732 3.891 3.89832C2.5 5.28932 2.5 7.52832 2.5 12.0083C2.5 16.4853 2.5 18.7253 3.891 20.1163C5.282 21.5073 7.521 21.5073 12 21.5073C16.478 21.5073 18.718 21.5073 20.109 20.1163C21.5 18.7253 21.5 16.4863 21.5 12.0073V11.0073" stroke="white" stroke-width="1.5" stroke-linecap="round" stroke-linejoin="round"/>
<path d="M21.4883 2.49316L17.3133 6.67016M16.4883 3.01416L16.6073 6.10516C16.6073 6.83416 17.0423 7.28816 17.8343 7.34516L20.9583 7.49216" stroke="#F7A600" stroke-width="1.5" stroke-linecap="round" stroke-linejoin="round"/>
</svg>
