<svg width="30" height="26" viewBox="0 0 30 26" fill="none" xmlns="http://www.w3.org/2000/svg">
<mask id="path-1-inside-1_5103_26266" fill="white">
<path d="M20.1064 9.22566C20.1064 7.79385 19.7238 6.38816 18.9983 5.15468C18.2728 3.9212 17.2309 2.90493 15.9809 2.21148C14.7309 1.51804 13.3184 1.17272 11.8902 1.21143C10.462 1.25013 9.07017 1.67143 7.85938 2.43155C6.6486 3.19168 5.66304 4.26288 5.00512 5.53385C4.3472 6.80482 4.04093 8.22918 4.11813 9.6589C4.19534 11.0886 4.65321 12.4715 5.44415 13.6639C6.2351 14.8563 7.33026 15.8147 8.61583 16.4394L9.58759 14.4312C8.65991 13.9804 7.86963 13.2888 7.29887 12.4283C6.72812 11.5679 6.39772 10.57 6.34201 9.53829C6.28629 8.50659 6.5073 7.47876 6.98206 6.56162C7.45682 5.64447 8.16801 4.87148 9.04172 4.32297C9.91544 3.77446 10.9198 3.47044 11.9504 3.44251C12.981 3.41459 14.0003 3.66377 14.9023 4.16416C15.8043 4.66456 16.5562 5.39791 17.0797 6.288C17.6032 7.1781 17.8793 8.19245 17.8793 9.22566H20.1064Z"/>
</mask>
<path d="M20.1064 9.22566C20.1064 7.79385 19.7238 6.38816 18.9983 5.15468C18.2728 3.9212 17.2309 2.90493 15.9809 2.21148C14.7309 1.51804 13.3184 1.17272 11.8902 1.21143C10.462 1.25013 9.07017 1.67143 7.85938 2.43155C6.6486 3.19168 5.66304 4.26288 5.00512 5.53385C4.3472 6.80482 4.04093 8.22918 4.11813 9.6589C4.19534 11.0886 4.65321 12.4715 5.44415 13.6639C6.2351 14.8563 7.33026 15.8147 8.61583 16.4394L9.58759 14.4312C8.65991 13.9804 7.86963 13.2888 7.29887 12.4283C6.72812 11.5679 6.39772 10.57 6.34201 9.53829C6.28629 8.50659 6.5073 7.47876 6.98206 6.56162C7.45682 5.64447 8.16801 4.87148 9.04172 4.32297C9.91544 3.77446 10.9198 3.47044 11.9504 3.44251C12.981 3.41459 14.0003 3.66377 14.9023 4.16416C15.8043 4.66456 16.5562 5.39791 17.0797 6.288C17.6032 7.1781 17.8793 8.19245 17.8793 9.22566H20.1064Z" stroke="#555555" stroke-width="4" mask="url(#path-1-inside-1_5103_26266)"/>
<path d="M16.1064 8.22168C19.9704 8.22168 23.1064 11.3618 23.1064 15.2393C23.1062 19.1166 19.9703 22.2559 16.1064 22.2559C12.2426 22.2559 9.10667 19.1166 9.10645 15.2393C9.10645 11.3618 12.2425 8.22168 16.1064 8.22168Z" stroke="#555555" stroke-width="2"/>
<g clip-path="url(#clip0_5103_26266)">
<path d="M23.6703 2.51928L21.5134 3.46767L22.4618 5.62454" stroke="#555555" stroke-width="2" stroke-linecap="round" stroke-linejoin="round"/>
<path d="M21.5137 3.46777L23.9979 4.43456C25.7129 5.102 26.5621 7.03326 25.8947 8.74829L25.7738 9.05882" stroke="#555555" stroke-width="2" stroke-linecap="round" stroke-linejoin="round"/>
</g>
<g clip-path="url(#clip1_5103_26266)">
<path d="M6.34248 23.5834L8.44636 22.5227L7.3856 20.4188" stroke="#555555" stroke-width="2" stroke-linecap="round" stroke-linejoin="round"/>
<path d="M8.44629 22.5225L5.91457 21.688C4.16674 21.1119 3.21693 19.228 3.79304 17.4802L3.89736 17.1638" stroke="#555555" stroke-width="2" stroke-linecap="round" stroke-linejoin="round"/>
</g>
<defs>
<clipPath id="clip0_5103_26266">
<rect width="7.9971" height="7.9971" fill="white" transform="translate(21.7905) rotate(21.2646)"/>
</clipPath>
<clipPath id="clip1_5103_26266">
<rect width="7.9971" height="7.9971" fill="white" transform="translate(8.35254 26) rotate(-161.757)"/>
</clipPath>
</defs>
</svg>
