<svg width="18" height="18" viewBox="0 0 18 18" fill="none" xmlns="http://www.w3.org/2000/svg">
<path d="M13.9124 12.69C14.7383 11.9072 15.3899 10.9591 15.8249 9.90752C15.8992 9.73454 15.9375 9.54826 15.9375 9.36001C15.9375 9.17177 15.8992 8.98549 15.8249 8.81252C15.2473 7.4073 14.2791 6.19704 13.0349 5.32502C11.854 4.4998 10.4401 4.07405 8.99991 4.11002C7.96373 4.084 6.93598 4.30239 5.99991 4.74752M4.07991 6.03752C3.25846 6.81964 2.60957 7.76486 2.17491 8.81252C2.10063 8.98549 2.06232 9.17177 2.06232 9.36001C2.06232 9.54826 2.10063 9.73454 2.17491 9.90752C2.75256 11.3127 3.72077 12.523 4.96491 13.395C6.14579 14.2202 7.55972 14.646 8.99991 14.61C10.0361 14.636 11.0638 14.4176 11.9999 13.9725" stroke="#7E7E7E" stroke-width="1.3" stroke-linecap="round" stroke-linejoin="round"/>
<path d="M11.4675 10.2375C11.5727 9.95694 11.626 9.65962 11.625 9.36C11.625 8.66381 11.3484 7.99613 10.8562 7.50384C10.3639 7.01156 9.69619 6.735 9 6.735C8.7 6.7335 8.403 6.7875 8.1225 6.8925M6.5325 8.4825C6.4275 8.763 6.3735 9.06 6.375 9.36C6.375 10.0562 6.65156 10.7239 7.14384 11.2162C7.63613 11.7084 8.30381 11.985 9 11.985C9.29962 11.986 9.59694 11.9327 9.8775 11.8275M15.75 15L3.75 3" stroke="#7E7E7E" stroke-width="1.3" stroke-linecap="round" stroke-linejoin="round"/>
</svg>
