<svg width="24" height="24" viewBox="0 0 24 24" fill="none" xmlns="http://www.w3.org/2000/svg">
<path d="M8.8403 10.8398C10.5082 10.8398 11.8603 9.4877 11.8603 7.8198C11.8603 6.1519 10.5082 4.7998 8.8403 4.7998C7.1724 4.7998 5.82031 6.1519 5.82031 7.8198C5.82031 9.4877 7.1724 10.8398 8.8403 10.8398Z" stroke="white" stroke-width="1.5" stroke-linecap="round" stroke-linejoin="round"/>
<path d="M2.75 19.1999V17.4799C2.75 15.4799 4.37 13.8599 6.37 13.8599H11.79C13.79 13.8599 15.41 15.4799 15.41 17.4799V19.1999" stroke="white" stroke-width="1.5" stroke-linecap="round" stroke-linejoin="round"/>
<path d="M16.3806 11.6997C17.6177 11.6997 18.6206 10.6968 18.6206 9.45972C18.6206 8.22261 17.6177 7.21973 16.3806 7.21973C15.1435 7.21973 14.1406 8.22261 14.1406 9.45972C14.1406 10.6968 15.1435 11.6997 16.3806 11.6997Z" stroke="#F7A600" stroke-width="1.5" stroke-linecap="round" stroke-linejoin="round"/>
<path d="M17.0215 13.9395H18.5615C20.0415 13.9395 21.2415 15.1395 21.2415 16.6195V17.8995" stroke="#F7A600" stroke-width="1.5" stroke-linecap="round" stroke-linejoin="round"/>
</svg>
