<svg width="16" height="16" viewBox="0 0 16 16" fill="none" xmlns="http://www.w3.org/2000/svg">
<path d="M14 7.00016C14 6.37709 14 6.06555 13.866 5.8335C13.7783 5.68148 13.652 5.55524 13.5 5.46747C13.2679 5.3335 12.9564 5.3335 12.3333 5.3335H3.66667C3.04359 5.3335 2.73205 5.3335 2.5 5.46747C2.34798 5.55524 2.22174 5.68148 2.13397 5.8335C2 6.06555 2 6.37709 2 7.00016V7.66683C2 8.21911 2.44771 8.66683 3 8.66683V8.66683C3.55228 8.66683 4 9.11454 4 9.66683V11.3335C4 12.2763 4 12.7477 4.29289 13.0406C4.58579 13.3335 5.05719 13.3335 6 13.3335H10C10.9428 13.3335 11.4142 13.3335 11.7071 13.0406C12 12.7477 12 12.2763 12 11.3335V9.66683C12 9.11454 12.4477 8.66683 13 8.66683V8.66683C13.5523 8.66683 14 8.21911 14 7.66683V7.00016Z" stroke="#F7A600" stroke-width="1.2"/>
<path d="M12.666 8.6665H3.33268" stroke="#F7A600" stroke-width="1.2" stroke-linecap="round"/>
<path d="M8 4.6665L8 13.3332" stroke="#F7A600" stroke-width="1.2" stroke-linecap="round"/>
<path d="M7.99935 4.66667L8.58505 4.08096C9.29592 3.37009 10.1625 2.83449 11.1163 2.51658V2.51658C11.8787 2.26244 12.666 2.82992 12.666 3.63356V3.75497C12.666 4.29943 12.3176 4.7828 11.8011 4.95497L10.666 5.33333" stroke="#F7A600" stroke-width="1.2" stroke-linecap="round"/>
<path d="M8.00065 4.66667L7.41495 4.08096C6.70408 3.37009 5.83745 2.83449 4.88372 2.51658V2.51658C4.12131 2.26244 3.33398 2.82992 3.33398 3.63356V3.75497C3.33398 4.29943 3.68238 4.7828 4.1989 4.95497L5.33398 5.33333" stroke="#F7A600" stroke-width="1.2" stroke-linecap="round"/>
</svg>
