<svg width="38" height="38" viewBox="0 0 38 38" fill="none" xmlns="http://www.w3.org/2000/svg">
<rect width="38" height="38" rx="4" fill="#F7A600"/>
<path d="M13.75 12.25C11.275 12.25 9.25 14.275 9.25 16.75C9.25 18.238 9.98275 19.5625 11.1017 20.383C9.124 21.364 7.75 23.398 7.75 25.75H9.25C9.25 23.257 11.257 21.25 13.75 21.25C16.243 21.25 18.25 23.257 18.25 25.75H19.75C19.75 23.257 21.757 21.25 24.25 21.25C26.743 21.25 28.75 23.257 28.75 25.75H30.25C30.25 23.3973 28.876 21.364 26.8983 20.383C27.4711 19.966 27.9375 19.4196 28.2592 18.7883C28.581 18.157 28.7492 17.4586 28.75 16.75C28.75 14.275 26.725 12.25 24.25 12.25C21.775 12.25 19.75 14.275 19.75 16.75C19.75 18.238 20.4827 19.5625 21.6017 20.383C20.5059 20.9216 19.5988 21.7795 19 22.8438C18.4012 21.7795 17.4941 20.9216 16.3983 20.383C16.9711 19.966 17.4375 19.4196 17.7592 18.7883C18.081 18.157 18.2492 17.4586 18.25 16.75C18.25 14.275 16.225 12.25 13.75 12.25ZM13.75 13.75C15.4173 13.75 16.75 15.0827 16.75 16.75C16.75 18.4173 15.4173 19.75 13.75 19.75C12.0827 19.75 10.75 18.4173 10.75 16.75C10.75 15.0827 12.0827 13.75 13.75 13.75ZM24.25 13.75C25.9172 13.75 27.25 15.0827 27.25 16.75C27.25 18.4173 25.9172 19.75 24.25 19.75C22.5828 19.75 21.25 18.4173 21.25 16.75C21.25 15.0827 22.5828 13.75 24.25 13.75Z" fill="#121212"/>
</svg>
