<svg width="26" height="26" viewBox="0 0 26 26" fill="none" xmlns="http://www.w3.org/2000/svg">
<path d="M22.75 21.6666C22.75 21.9539 22.6359 22.2294 22.4327 22.4326C22.2295 22.6358 21.954 22.7499 21.6667 22.7499H4.33333C4.04602 22.7499 3.77047 22.6358 3.5673 22.4326C3.36414 22.2294 3.25 21.9539 3.25 21.6666V10.2807C3.24989 10.1157 3.2875 9.95273 3.35998 9.8044C3.43245 9.65608 3.53786 9.52628 3.66817 9.42491L12.3348 2.68333C12.525 2.5354 12.7591 2.45508 13 2.45508C13.2409 2.45508 13.475 2.5354 13.6652 2.68333L22.3318 9.42491C22.4621 9.52628 22.5676 9.65608 22.64 9.8044C22.7125 9.95273 22.7501 10.1157 22.75 10.2807V21.6666ZM20.5833 20.5832V10.8094L13 4.91175L5.41667 10.8094V20.5832H20.5833Z" fill="#555555"/>
</svg>
