<svg width="24" height="24" viewBox="0 0 24 24" fill="none" xmlns="http://www.w3.org/2000/svg">
<path d="M2 12C2 17.523 6.477 22 12 22C17.523 22 22 17.523 22 12C22 6.477 17.523 2 12 2C6.477 2 2 6.477 2 12Z" stroke="white" stroke-width="1.5" stroke-linecap="round" stroke-linejoin="round"/>
<path d="M12.9989 2.0498C12.9989 2.0498 15.9989 5.9998 15.9989 11.9998C15.9989 17.9998 12.9989 21.9498 12.9989 21.9498M10.9989 21.9498C10.9989 21.9498 7.99891 17.9998 7.99891 11.9998C7.99891 5.9998 10.9989 2.0498 10.9989 2.0498M2.62891 15.4998H21.3689M2.62891 8.4998H21.3689" stroke="#F7A600" stroke-width="1.5" stroke-linecap="round" stroke-linejoin="round"/>
</svg>
