<svg width="20" height="23" viewBox="0 0 20 23" fill="none" xmlns="http://www.w3.org/2000/svg">
<g clip-path="url(#clip0_1174_19661)">
<path d="M14.5257 0C14.8689 0.0736719 15.2164 0.131771 15.5513 0.224609C16.7166 0.545233 17.7587 1.20462 18.5435 2.11797C19.3284 3.03132 19.82 4.15688 19.9554 5.3499C20.3294 8.57229 18.0483 11.5288 14.8273 11.9983C13.7178 12.1601 12.9438 12.0738 11.6371 11.639C11.4307 12.0109 11.0826 12.0834 10.6808 12.0816C8.61452 12.0738 6.54822 12.0774 4.48131 12.0816C4.1501 12.0816 3.87258 11.9852 3.6934 11.6929C3.62352 11.5812 3.58326 11.4538 3.57637 11.3225C3.56948 11.1912 3.59619 11.0603 3.65402 10.942C3.71184 10.8237 3.79889 10.7219 3.90705 10.646C4.01521 10.5702 4.14096 10.5227 4.27257 10.5081C4.36999 10.4984 4.46789 10.4944 4.56578 10.4961H9.79216C9.71856 10.4135 9.68055 10.3656 9.63651 10.3224C9.12335 9.82433 8.70715 9.2365 8.4088 8.58846C8.34424 8.44651 8.26702 8.395 8.10715 8.3962C6.87038 8.40339 5.63362 8.40339 4.39685 8.3962C4.21792 8.40218 4.04228 8.34748 3.89884 8.24111C3.75541 8.13474 3.65273 7.98305 3.60773 7.81102C3.51362 7.48878 3.63307 7.11862 3.93714 6.9557C4.1171 6.86699 4.31538 6.82106 4.5163 6.82154C5.54976 6.80896 6.58261 6.81555 7.61606 6.81555H7.81998C7.84833 6.12375 7.87548 5.4625 7.90263 4.78508H1.59814V21.411H13.713V21.1558C13.713 19.434 13.713 17.7122 13.713 15.9904C13.7075 15.8205 13.7586 15.6535 13.8582 15.5152C13.9579 15.377 14.1007 15.2752 14.2644 15.2255C14.4185 15.1708 14.5863 15.1677 14.7423 15.2166C14.8983 15.2655 15.0339 15.3637 15.1284 15.4963C15.2236 15.629 15.2793 15.7857 15.2888 15.9485C15.2985 17.8424 15.2985 19.7365 15.2888 21.6308C15.2858 22.1854 14.8798 22.7047 14.3368 22.9078C14.262 22.9353 14.1896 22.9677 14.116 23H1.17583C1.16015 22.9862 1.14687 22.9653 1.12817 22.9587C0.352931 22.7005 0 22.2148 0 21.4032V4.76951C0 3.80159 0.618383 3.19185 1.59814 3.19185C3.84443 3.19185 6.09072 3.19285 8.337 3.19484C8.40217 3.20096 8.46766 3.18698 8.52455 3.15483C8.58144 3.12268 8.62697 3.07391 8.65494 3.01516C9.53938 1.54831 10.8093 0.583984 12.4883 0.170104C12.7719 0.100625 13.0614 0.0563021 13.3486 0H14.5257ZM13.9224 10.486C16.3995 10.4794 18.4115 8.48724 18.4139 6.0375C18.4163 3.58776 16.3796 1.56687 13.9085 1.57167C11.4374 1.57646 9.42234 3.58237 9.41812 6.02792C9.41691 8.48484 11.4458 10.4926 13.9254 10.486H13.9224Z" fill="#7E7E7E"/>
<path d="M7.64704 15.7073C6.59167 15.7073 5.53669 15.7073 4.48213 15.7073C4.19013 15.7073 3.9295 15.6354 3.7461 15.3905C3.55485 15.1347 3.51866 14.8586 3.66043 14.5687C3.81126 14.2614 4.07309 14.1213 4.40792 14.1177C4.96537 14.1111 5.52282 14.1177 6.08027 14.1177C7.66976 14.1177 9.25966 14.1177 10.85 14.1177C11.376 14.1177 11.7308 14.4609 11.7175 14.9418C11.7127 15.1153 11.6492 15.2821 11.5372 15.4153C11.4253 15.5485 11.2713 15.6404 11.1003 15.6762C10.9894 15.6972 10.8766 15.7073 10.7637 15.7061C9.72561 15.7085 8.68672 15.7089 7.64704 15.7073Z" fill="#7E7E7E"/>
<path d="M7.64942 19.38C6.60933 19.38 5.56985 19.38 4.52976 19.38C4.38722 19.3841 4.24487 19.3669 4.10745 19.3291C3.93874 19.272 3.79464 19.1596 3.69891 19.0103C3.60317 18.8611 3.5615 18.6839 3.58077 18.508C3.60319 18.3244 3.68852 18.1541 3.82242 18.0257C3.95633 17.8972 4.13067 17.8184 4.31619 17.8024C4.36134 17.7988 4.40665 17.7976 4.45193 17.7988C6.58359 17.7988 8.71525 17.7988 10.8469 17.7988C11.3814 17.7988 11.7398 18.151 11.7163 18.6433C11.7062 18.8196 11.6356 18.9871 11.5161 19.118C11.3967 19.2488 11.2356 19.3349 11.0599 19.3621C10.9553 19.3754 10.8498 19.3812 10.7444 19.3794C9.71311 19.3806 8.68147 19.3808 7.64942 19.38Z" fill="#7E7E7E"/>
<path d="M15.3053 13.4764C15.306 13.5968 15.2967 13.717 15.2776 13.8358C15.1895 14.2161 14.8154 14.4629 14.4076 14.4228C14.2237 14.3983 14.0541 14.3111 13.9278 14.1762C13.8014 14.0413 13.7262 13.867 13.715 13.6831C13.709 13.5489 13.7102 13.4141 13.715 13.28C13.715 13.0716 13.7984 12.8717 13.9469 12.7243C14.0953 12.5769 14.2966 12.4941 14.5066 12.4941C14.7165 12.4941 14.9178 12.5769 15.0662 12.7243C15.2147 12.8717 15.2981 13.0716 15.2981 13.28C15.2981 13.3471 15.2981 13.4141 15.2981 13.4818L15.3053 13.4764Z" fill="#7E7E7E"/>
<path d="M13.1242 4.40687C13.1242 3.87619 13.1242 3.34552 13.1242 2.81484C13.1242 2.34286 13.4783 1.98648 13.9272 1.99427C14.376 2.00205 14.7048 2.34406 14.7072 2.81124C14.7115 3.65638 14.7127 4.50091 14.7072 5.34604C14.7072 5.49458 14.7501 5.57065 14.8882 5.63414C15.2424 5.79705 15.5893 5.97794 15.9362 6.15643C16.3826 6.38643 16.5364 6.82307 16.3247 7.24713C16.122 7.65263 15.6695 7.78619 15.2273 7.56997C14.7024 7.31062 14.1824 7.04109 13.6551 6.78653C13.2901 6.61044 13.1121 6.33851 13.1236 5.93242C13.1326 5.4239 13.1242 4.91539 13.1242 4.40687Z" fill="#7E7E7E"/>
</g>
<defs>
<clipPath id="clip0_1174_19661">
<rect width="20" height="23" fill="white"/>
</clipPath>
</defs>
</svg>
