<svg width="13" height="12" viewBox="0 0 13 12" fill="none" xmlns="http://www.w3.org/2000/svg">
<path d="M5.08622 7.41472L7.91472 4.58622M4.02522 5.64672L3.31822 6.35372C3.1325 6.53945 2.98518 6.75993 2.88467 7.00259C2.78415 7.24524 2.73242 7.50532 2.73242 7.76797C2.73242 8.03062 2.78415 8.2907 2.88467 8.53336C2.98518 8.77602 3.1325 8.9965 3.31822 9.18222C3.50395 9.36795 3.72443 9.51527 3.96709 9.61578C4.20974 9.71629 4.46982 9.76802 4.73247 9.76802C4.99512 9.76802 5.2552 9.71629 5.49786 9.61578C5.74052 9.51527 5.961 9.36795 6.14672 9.18222L6.85272 8.47522M6.14622 3.52522L6.85322 2.81822C7.03895 2.6325 7.25943 2.48518 7.50209 2.38467C7.74474 2.28415 8.00482 2.23242 8.26747 2.23242C8.53012 2.23242 8.7902 2.28415 9.03286 2.38467C9.27552 2.48518 9.496 2.6325 9.68172 2.81822C9.86745 3.00395 10.0148 3.22443 10.1153 3.46709C10.2158 3.70974 10.2675 3.96982 10.2675 4.23247C10.2675 4.49512 10.2158 4.7552 10.1153 4.99786C10.0148 5.24052 9.86745 5.461 9.68172 5.64672L8.97472 6.35372" stroke="#7E7E7E" stroke-linecap="round" stroke-linejoin="round"/>
</svg>
