<svg width="20" height="21" viewBox="0 0 20 21" fill="none" xmlns="http://www.w3.org/2000/svg">
<path fill-rule="evenodd" clip-rule="evenodd" d="M19.9434 9.03758H13.6605C13.1854 7.19777 11.4163 5.9982 9.53125 6.23763C7.64617 6.47705 6.2332 8.08078 6.2332 9.98092C6.2332 11.8811 7.64617 13.4848 9.53125 13.7242C11.4163 13.9636 13.1854 12.7641 13.6605 10.9243H18.0189C17.6114 14.4437 14.9574 17.2865 11.4741 17.9345C7.99078 18.5825 4.49189 16.8843 2.84596 13.7469C1.20003 10.6095 1.79152 6.76566 4.30457 4.26818C6.81761 1.7707 10.6652 1.20295 13.7925 2.86812C13.2868 4.27775 13.8771 5.84615 15.1866 6.57272C16.4962 7.2993 18.1394 6.97003 19.0679 5.79497C19.9964 4.61992 19.9366 2.94522 18.9268 1.83927C17.917 0.733319 16.2546 0.521906 15.0001 1.3399C11.0804 -0.92299 6.12952 -0.271228 2.92915 2.92898C-0.271216 6.12918 -0.923039 11.0799 1.33993 14.9993C3.60291 18.9188 8.2164 20.8297 12.5882 19.6584C16.96 18.4871 19.9999 14.5256 20 9.99979C20 9.62245 19.9811 9.30171 19.9434 9.03758ZM10.0002 11.8676C8.95817 11.8676 8.11343 11.0229 8.11343 9.98092C8.11343 8.93894 8.95817 8.09424 10.0002 8.09424C11.0422 8.09424 11.887 8.93894 11.887 9.98092C11.887 11.0229 11.0422 11.8676 10.0002 11.8676ZM17.7063 3.47257C17.5311 3.04957 17.1183 2.77376 16.6604 2.77376C16.0352 2.77376 15.5283 3.28058 15.5283 3.90577C15.5283 4.36363 15.8041 4.7764 16.2272 4.95161C16.6502 5.12683 17.1371 5.02998 17.4609 4.70623C17.7846 4.38247 17.8815 3.89557 17.7063 3.47257Z" fill="#7E7E7E"/>
</svg>
