<svg width="17" height="18" viewBox="0 0 17 18" fill="none" xmlns="http://www.w3.org/2000/svg">
<path fill-rule="evenodd" clip-rule="evenodd" d="M11.054 9.33448C10.9161 8.94445 10.6607 8.60676 10.3229 8.36794C9.98516 8.12912 9.58164 8.00091 9.16797 8.00098V7.50098H8.16797V8.00098C7.63754 8.00098 7.12883 8.21169 6.75376 8.58676C6.37868 8.96184 6.16797 9.47054 6.16797 10.001C6.16797 10.5314 6.37868 11.0401 6.75376 11.4152C7.12883 11.7903 7.63754 12.001 8.16797 12.001V14.001C7.73297 14.001 7.36247 13.7235 7.22447 13.3345C7.20399 13.2708 7.17096 13.2119 7.12733 13.1613C7.0837 13.1106 7.03036 13.0692 6.97045 13.0396C6.91054 13.0099 6.84529 12.9925 6.77856 12.9885C6.71182 12.9845 6.64496 12.9939 6.58193 13.0162C6.51889 13.0384 6.46096 13.0731 6.41156 13.1182C6.36217 13.1632 6.32231 13.2177 6.29434 13.2784C6.26638 13.3392 6.25087 13.4049 6.24875 13.4717C6.24662 13.5385 6.25792 13.6051 6.28197 13.6675C6.41983 14.0575 6.67523 14.3952 7.01301 14.634C7.35078 14.8728 7.75429 15.001 8.16797 15.001V15.501H9.16797V15.001C9.6984 15.001 10.2071 14.7903 10.5822 14.4152C10.9573 14.0401 11.168 13.5314 11.168 13.001C11.168 12.4705 10.9573 11.9618 10.5822 11.5868C10.2071 11.2117 9.6984 11.001 9.16797 11.001V9.00098C9.37478 9.00092 9.57651 9.06499 9.74539 9.18436C9.91428 9.30372 10.042 9.47251 10.111 9.66748C10.1551 9.79253 10.2472 9.89491 10.3668 9.95211C10.426 9.98043 10.4903 9.99681 10.5559 10.0003C10.6214 10.0038 10.6871 9.99434 10.749 9.97248C10.8109 9.95061 10.8679 9.91676 10.9167 9.87287C10.9656 9.82897 11.0053 9.77589 11.0336 9.71664C11.0619 9.6574 11.0783 9.59316 11.0818 9.52759C11.0853 9.46201 11.0758 9.39639 11.054 9.33448ZM8.16797 9.00098C7.90275 9.00098 7.6484 9.10633 7.46086 9.29387C7.27333 9.48141 7.16797 9.73576 7.16797 10.001C7.16797 10.2662 7.27333 10.5205 7.46086 10.7081C7.6484 10.8956 7.90275 11.001 8.16797 11.001V9.00098ZM9.16797 14.001C9.43319 14.001 9.68754 13.8956 9.87508 13.7081C10.0626 13.5205 10.168 13.2662 10.168 13.001C10.168 12.7358 10.0626 12.4814 9.87508 12.2939C9.68754 12.1063 9.43319 12.001 9.16797 12.001V14.001Z" fill="black"/>
<path fill-rule="evenodd" clip-rule="evenodd" d="M3.24446 1.31148C4.47146 0.710977 6.48446 0.000976562 8.68746 0.000976562C10.8445 0.000976562 12.8045 0.681476 14.025 1.27398L14.094 1.30748C14.462 1.48948 14.759 1.66148 14.968 1.80098L13.121 4.50098C17.379 8.85398 20.668 17.9995 8.68746 17.9995C-3.29304 17.9995 -0.092541 9.01998 4.20246 4.50098L2.36746 1.80098C2.50896 1.70848 2.68846 1.60098 2.90246 1.48698C3.00846 1.42998 3.12246 1.37114 3.24446 1.31148ZM11.934 4.46548L13.4125 2.30398C12.0375 2.40298 10.4015 2.72598 8.82646 3.18198C7.70146 3.50698 6.45146 3.45748 5.29396 3.24398C5.00226 3.18997 4.71258 3.1256 4.42546 3.05098L5.38546 4.46448C7.44296 5.19698 9.87596 5.19698 11.934 4.46548ZM4.80796 5.31598C7.21546 6.24598 10.109 6.24598 12.5165 5.31498C13.5211 6.37454 14.3618 7.57834 15.0105 8.88648C15.6865 10.2655 16.0545 11.644 15.9945 12.832C15.9365 13.9785 15.4855 14.958 14.4555 15.686C13.382 16.4445 11.5765 16.9995 8.68696 16.9995C5.79446 16.9995 3.98046 16.454 2.89696 15.704C1.85946 14.9855 1.40396 14.019 1.33946 12.888C1.27196 11.713 1.63196 10.3415 2.30546 8.95298C2.94796 7.62898 3.84446 6.35448 4.80796 5.31598ZM4.23296 1.95898C4.63296 2.07798 5.05096 2.18148 5.47496 2.25998C6.54996 2.45798 7.62796 2.48698 8.54796 2.22048C9.62004 1.90803 10.7105 1.66239 11.813 1.48498C10.893 1.20798 9.81696 1.00098 8.68696 1.00098C6.96446 1.00098 5.35796 1.48148 4.23296 1.95898Z" fill="black"/>
</svg>
