<svg width="17" height="18" viewBox="0 0 17 18" fill="none" xmlns="http://www.w3.org/2000/svg">
<path d="M16.6735 11.9437C15.9406 11.2591 14.5687 10.2295 14.5687 6.85704C14.57 5.64677 14.0858 4.47395 13.1993 3.54036C12.3128 2.60676 11.0795 1.97077 9.7116 1.7418V1.05493C9.7116 0.916393 9.68019 0.779215 9.61917 0.651225C9.55815 0.523235 9.46871 0.406941 9.35595 0.308981C9.24319 0.211022 9.10933 0.133317 8.96201 0.0803016C8.81468 0.0272865 8.65678 0 8.49732 0C8.33786 0 8.17996 0.0272865 8.03264 0.0803016C7.88531 0.133317 7.75145 0.211022 7.6387 0.308981C7.52594 0.406941 7.4365 0.523235 7.37547 0.651225C7.31445 0.779215 7.28304 0.916393 7.28304 1.05493V1.7418C5.91512 1.97077 4.68182 2.60676 3.79534 3.54036C2.90885 4.47395 2.42461 5.64677 2.42592 6.85704C2.42592 10.2295 1.05405 11.2591 0.321165 11.9437C0.112121 12.1374 -0.00289524 12.3936 5.53992e-05 12.6591C0.00019687 12.7979 0.031827 12.9353 0.0931367 13.0635C0.154446 13.1916 0.244233 13.308 0.357361 13.406C0.47049 13.504 0.604741 13.5816 0.752436 13.6345C0.900132 13.6873 1.05837 13.7144 1.21811 13.7141H15.7819C15.9417 13.7144 16.0999 13.6873 16.2476 13.6345C16.3953 13.5816 16.5296 13.504 16.6427 13.406C16.7558 13.308 16.8456 13.1916 16.9069 13.0635C16.9682 12.9353 16.9998 12.7979 17 12.6591C17.0015 12.393 16.8845 12.1366 16.6735 11.9437Z" fill="#7E7E7E"/>
<path d="M11.3337 15.4288C11.3337 16.1108 11.0351 16.7648 10.5038 17.2471C9.97244 17.7293 9.25177 18.0002 8.50033 18.0002C7.74888 18.0002 7.02821 17.7293 6.49686 17.2471C5.9655 16.7648 5.66699 16.1108 5.66699 15.4288L8.50033 15.4288H11.3337Z" fill="#7E7E7E"/>
</svg>
