<svg width="18" height="18" viewBox="0 0 18 18" fill="none" xmlns="http://www.w3.org/2000/svg">
<path d="M7.3125 16.3125H3.9375V1.6875H14.0625V7.875M5.625 5.0625H12.375M5.625 7.3125H10.125M11.8125 10.6875V12.9375L13.5 14.625M15.1875 12.9375C15.1875 13.8326 14.8319 14.6911 14.199 15.324C13.5661 15.9569 12.7076 16.3125 11.8125 16.3125C10.9174 16.3125 10.0589 15.9569 9.42601 15.324C8.79308 14.6911 8.4375 13.8326 8.4375 12.9375C8.4375 12.0424 8.79308 11.1839 9.42601 10.551C10.0589 9.91808 10.9174 9.5625 11.8125 9.5625C12.7076 9.5625 13.5661 9.91808 14.199 10.551C14.8319 11.1839 15.1875 12.0424 15.1875 12.9375Z" stroke="#7E7E7E" stroke-linejoin="round"/>
</svg>
