<svg width="14" height="14" viewBox="0 0 14 14" fill="none" xmlns="http://www.w3.org/2000/svg">
<g clip-path="url(#clip0_2606_28437)">
<path d="M1.45833 3.00417V0.4375M1.45833 5.92083V7.67083M4.66667 7.4375V5.6875M4.66667 11.2292V13.5625M8.63333 10.4125V12.7458M10.0625 3.99583L11.8125 1.89583M11.8125 1.89583L13.5625 3.99583M11.8125 1.89583V10.9958M2.47917 5.3375C2.47917 5.6875 2.24583 5.92083 1.89583 5.92083H1.02083C0.670833 5.92083 0.4375 5.6875 0.4375 5.3375V3.5875C0.4375 3.2375 0.670833 3.00417 1.02083 3.00417H1.89583C2.24583 3.00417 2.47917 3.2375 2.47917 3.5875V5.3375ZM5.6875 10.6458C5.6875 10.9958 5.45417 11.2292 5.10417 11.2292H4.22917C3.87917 11.2292 3.64583 10.9958 3.64583 10.6458V8.02083C3.64583 7.67083 3.87917 7.4375 4.22917 7.4375H5.10417C5.45417 7.4375 5.6875 7.67083 5.6875 8.02083V10.6458ZM9.65417 9.82917C9.65417 10.1792 9.42083 10.4125 9.07083 10.4125H8.19583C7.84583 10.4125 7.6125 10.1792 7.6125 9.82917V7.49583C7.6125 7.14583 7.84583 6.9125 8.19583 6.9125H9.07083C9.42083 6.9125 9.65417 7.14583 9.65417 7.49583V9.82917Z" stroke="#7E7E7E" stroke-miterlimit="10" stroke-linecap="round" stroke-linejoin="round"/>
</g>
<defs>
<clipPath id="clip0_2606_28437">
<rect width="14" height="14" fill="white"/>
</clipPath>
</defs>
</svg>
