<svg width="16" height="16" viewBox="0 0 16 16" fill="none" xmlns="http://www.w3.org/2000/svg">
<path d="M15.9393 7.73329C15.8296 7.50218 13.3253 2 7.99687 2C7.48667 1.99969 6.97795 2.05334 6.47968 2.16C6.31557 2.20941 6.17652 2.31694 6.09005 2.46131C6.00359 2.60569 5.97601 2.77637 6.01279 2.93958C6.04957 3.10278 6.14803 3.2466 6.28865 3.34257C6.42928 3.43854 6.60184 3.47965 6.77215 3.45777C7.17496 3.37577 7.58534 3.33407 7.99687 3.33333C11.8173 3.33333 14.0108 6.97774 14.55 7.99996C14.2212 8.62461 13.8358 9.21955 13.3984 9.77772C13.3199 9.87612 13.2712 9.99395 13.258 10.1179C13.2448 10.2418 13.2676 10.3668 13.3237 10.4788C13.3799 10.5908 13.4671 10.6852 13.5756 10.7514C13.6842 10.8176 13.8096 10.8529 13.9377 10.8533C14.0418 10.853 14.1445 10.8296 14.2379 10.7849C14.3313 10.7402 14.4131 10.6755 14.4769 10.5955C15.0527 9.88461 15.5433 9.11223 15.9393 8.29329C15.9793 8.20508 16 8.10971 16 8.01329C16 7.91687 15.9793 7.8215 15.9393 7.73329ZM2.99745 2.19556C2.86751 2.0778 2.69564 2.01369 2.51805 2.01673C2.34047 2.01978 2.17103 2.08975 2.04544 2.21189C1.91985 2.33404 1.84791 2.49882 1.84477 2.67153C1.84164 2.84424 1.90756 3.01139 2.02864 3.13777L2.86949 3.95554C1.6796 5.02144 0.722275 6.30918 0.054463 7.74218C0.0185173 7.82518 0 7.91434 0 8.0044C0 8.09447 0.0185173 8.18362 0.054463 8.26662C0.164139 8.49773 2.66842 13.9999 7.99687 13.9999C9.42205 14.0068 10.8177 13.6048 12.0092 12.8444L12.9963 13.8044C13.1248 13.9292 13.299 13.9993 13.4807 13.9993C13.6623 13.9993 13.8366 13.9292 13.9651 13.8044C14.0935 13.6794 14.1656 13.5099 14.1656 13.3333C14.1656 13.1566 14.0935 12.9871 13.9651 12.8621L2.99745 2.19556ZM6.49796 7.52885L8.51783 9.50217C8.23474 9.59343 7.93155 9.60857 7.64034 9.54598C7.34913 9.48339 7.08073 9.3454 6.86355 9.14662C6.64237 8.93454 6.48988 8.66412 6.42491 8.36873C6.35994 8.07335 6.38534 7.76592 6.49796 7.48441V7.52885ZM7.99687 12.6666C4.16733 12.6666 1.98294 9.01328 1.4437 7.99996C2.04023 6.83224 2.85185 5.78079 3.8383 4.89776L5.47431 6.48886C5.12319 7.04077 4.97405 7.69185 5.05106 8.33653C5.12807 8.98122 5.42673 9.5817 5.89861 10.0406C6.37049 10.4995 6.98792 10.79 7.65079 10.8649C8.31367 10.9398 8.98313 10.7948 9.55062 10.4533L11.0221 11.8844C10.1037 12.4035 9.05906 12.6736 7.99687 12.6666Z" fill="#7E7E7E"/>
</svg>
