<svg width="24" height="24" viewBox="0 0 24 24" fill="none" xmlns="http://www.w3.org/2000/svg">
<path d="M12 1.99999C10.6865 1.99837 9.38571 2.2563 8.17224 2.75895C6.95877 3.2616 5.85658 3.99907 4.92899 4.92899C3.99907 5.85658 3.2616 6.95877 2.75895 8.17224C2.2563 9.38571 1.99837 10.6865 1.99999 12C1.99837 13.3134 2.2563 14.6143 2.75895 15.8277C3.2616 17.0412 3.99907 18.1434 4.92899 19.071C5.85658 20.0009 6.95877 20.7384 8.17224 21.241C9.38571 21.7437 10.6865 22.0016 12 22C13.3134 22.0016 14.6143 21.7437 15.8277 21.241C17.0412 20.7384 18.1434 20.0009 19.071 19.071C20.0009 18.1434 20.7384 17.0412 21.241 15.8277C21.7437 14.6143 22.0016 13.3134 22 12C22.0016 10.6865 21.7437 9.38571 21.241 8.17224C20.7384 6.95877 20.0009 5.85658 19.071 4.92899C18.1434 3.99907 17.0412 3.2616 15.8277 2.75895C14.6143 2.2563 13.3134 1.99837 12 1.99999Z" stroke="white" stroke-width="1.5" stroke-linejoin="round"/>
<path fill-rule="evenodd" clip-rule="evenodd" d="M12 7.5C11.6685 7.5 11.3505 7.6317 11.1161 7.86612C10.8817 8.10054 10.75 8.41848 10.75 8.75C10.75 9.08152 10.8817 9.39946 11.1161 9.63388C11.3505 9.8683 11.6685 10 12 10C12.3315 10 12.6495 9.8683 12.8839 9.63388C13.1183 9.39946 13.25 9.08152 13.25 8.75C13.25 8.41848 13.1183 8.10054 12.8839 7.86612C12.6495 7.6317 12.3315 7.5 12 7.5Z" fill="#F7A600"/>
<path d="M12 17V12" stroke="#F7A600" stroke-width="2" stroke-linecap="round" stroke-linejoin="round"/>
</svg>
