<svg width="25" height="25" viewBox="0 0 25 25" fill="none" xmlns="http://www.w3.org/2000/svg">
<path d="M12.502 9.50732C11.397 9.50732 10.502 10.1793 10.502 11.0073C10.502 11.8363 11.397 12.5073 12.502 12.5073C13.607 12.5073 14.502 13.1793 14.502 14.0073C14.502 14.8363 13.606 15.5073 12.502 15.5073M12.502 9.50732C13.372 9.50732 14.114 9.92432 14.388 10.5073M12.502 9.50732V8.50732M12.502 15.5073C11.632 15.5073 10.89 15.0903 10.616 14.5073M12.502 15.5073V16.5073" stroke="white" stroke-width="1.5" stroke-linecap="round" stroke-linejoin="round"/>
<path d="M13.5 3.00732H12.5C8.022 3.00732 5.782 3.00732 4.391 4.39832C3 5.78932 3 8.02832 3 12.5083C3 16.9853 3 19.2253 4.391 20.6163C5.782 22.0073 8.021 22.0073 12.5 22.0073C16.978 22.0073 19.218 22.0073 20.609 20.6163C22 19.2253 22 16.9863 22 12.5073V11.5073" stroke="white" stroke-width="1.5" stroke-linecap="round" stroke-linejoin="round"/>
<path d="M21.9883 2.99316L17.8133 7.17016M16.9883 3.51416L17.1073 6.60516C17.1073 7.33416 17.5423 7.78816 18.3343 7.84516L21.4583 7.99216" stroke="white" stroke-width="1.5" stroke-linecap="round" stroke-linejoin="round"/>
</svg>
