<svg width="24" height="24" viewBox="0 0 24 24" fill="none" xmlns="http://www.w3.org/2000/svg">
<circle cx="12" cy="8" r="2.5" stroke="white" stroke-linecap="round"/>
<path d="M13.7679 6.5C13.9657 6.15743 14.2607 5.88121 14.6154 5.70625C14.9702 5.5313 15.3689 5.46548 15.7611 5.51711C16.1532 5.56874 16.5213 5.73551 16.8187 5.99632C17.1161 6.25713 17.3295 6.60028 17.4319 6.98236C17.5342 7.36445 17.521 7.76831 17.3939 8.14288C17.2667 8.51745 17.0313 8.8459 16.7175 9.08671C16.4037 9.32751 16.0255 9.46985 15.6308 9.49572C15.2361 9.52159 14.8426 9.42983 14.5 9.23205" stroke="white"/>
<path d="M10.2321 6.5C10.0343 6.15743 9.73935 5.88121 9.38458 5.70625C9.02981 5.5313 8.63113 5.46548 8.23895 5.51711C7.84677 5.56874 7.47871 5.73551 7.18131 5.99632C6.88391 6.25713 6.67053 6.60028 6.56815 6.98236C6.46577 7.36445 6.47899 7.76831 6.60614 8.14288C6.73329 8.51745 6.96866 8.8459 7.28248 9.08671C7.5963 9.32751 7.97448 9.46985 8.36919 9.49572C8.76391 9.52159 9.15743 9.42983 9.5 9.23205" stroke="white"/>
<path d="M12 12.5C16.0802 12.5 17.1335 15.8022 17.4054 17.507C17.4924 18.0524 17.0523 18.5 16.5 18.5H7.5C6.94771 18.5 6.50763 18.0524 6.59461 17.507C6.86649 15.8022 7.91976 12.5 12 12.5Z" stroke="white" stroke-linecap="round"/>
<path d="M15.501 11.5L15.501 11H15.501V11.5ZM19.2969 15.416L19.7819 15.2946L19.7819 15.2945L19.2969 15.416ZM17.1807 16.5L16.7004 16.639L16.8048 17H17.1807V16.5ZM13.0879 12.5859L12.7186 12.2488L12.0982 12.9283L13.0059 13.0792L13.0879 12.5859ZM15.501 11.5L15.501 12C16.5285 12 17.2501 12.5026 17.7788 13.2068C18.3181 13.9251 18.6347 14.8303 18.8119 15.5375L19.2969 15.416L19.7819 15.2945C19.5907 14.5313 19.2333 13.4785 18.5785 12.6065C17.9132 11.7203 16.921 11.0001 15.501 11L15.501 11.5ZM19.2969 15.416L18.8119 15.5375C18.8657 15.7526 18.7077 16 18.3955 16V16.5V17C19.2665 17 20.0155 16.2272 19.7819 15.2946L19.2969 15.416ZM18.3955 16.5V16H17.1807V16.5V17H18.3955V16.5ZM17.1807 16.5L17.661 16.361C17.1898 14.7329 16.0197 12.5663 13.1699 12.0927L13.0879 12.5859L13.0059 13.0792C15.306 13.4614 16.2782 15.1799 16.7004 16.639L17.1807 16.5ZM13.0879 12.5859L13.4571 12.9231C13.9575 12.3751 14.6116 12 15.501 12V11.5V11C14.2838 11 13.3744 11.5306 12.7186 12.2488L13.0879 12.5859Z" fill="white"/>
<path d="M8.49902 11.5V11H8.49897L8.49902 11.5ZM10.9111 12.5859L10.9932 13.0792L11.9009 12.9281L11.2803 12.2487L10.9111 12.5859ZM6.81934 16.5V17H7.19517L7.29963 16.639L6.81934 16.5ZM4.70312 15.416L4.21811 15.2945L4.2181 15.2946L4.70312 15.416ZM8.49902 11.5V12C9.38784 12 10.0415 12.3752 10.542 12.9231L10.9111 12.5859L11.2803 12.2487C10.6248 11.5311 9.71614 11 8.49902 11V11.5ZM10.9111 12.5859L10.8291 12.0927C7.98005 12.5667 6.81008 14.7332 6.33904 16.361L6.81934 16.5L7.29963 16.639C7.72176 15.1801 8.69381 13.4617 10.9932 13.0792L10.9111 12.5859ZM6.81934 16.5V16H5.60449V16.5V17H6.81934V16.5ZM5.60449 16.5V16C5.29229 16 5.13427 15.7526 5.18815 15.5375L4.70312 15.416L4.2181 15.2946C3.98454 16.2272 4.73345 17 5.60449 17V16.5ZM4.70312 15.416L5.18814 15.5375C5.36525 14.8304 5.68194 13.9252 6.22122 13.2069C6.74992 12.5027 7.47155 12.0001 8.49907 12L8.49902 11.5L8.49897 11C7.07901 11.0001 6.08683 11.7204 5.42152 12.6065C4.76678 13.4786 4.40927 14.5313 4.21811 15.2945L4.70312 15.416Z" fill="white"/>
</svg>
