<svg width="27" height="27" viewBox="0 0 27 27" fill="none" xmlns="http://www.w3.org/2000/svg">
<path d="M9.11645 3.28052H4.74243C4.45242 3.28052 4.17428 3.39573 3.96921 3.6008C3.76413 3.80587 3.64893 4.08401 3.64893 4.37402V8.74805M9.11645 22.9636H4.74243C4.45242 22.9636 4.17428 22.8484 3.96921 22.6433C3.76413 22.4383 3.64893 22.1601 3.64893 21.8701V17.4961M17.8645 22.9636H22.2385C22.5285 22.9636 22.8067 22.8484 23.0117 22.6433C23.2168 22.4383 23.332 22.1601 23.332 21.8701V17.4961M17.8645 3.28052H22.2385C22.5285 3.28052 22.8067 3.39573 23.0117 3.6008C23.2168 3.80587 23.332 4.08401 23.332 4.37402V8.74805" stroke="#555555" stroke-width="2" stroke-linecap="round" stroke-linejoin="round"/>
<path d="M10.7568 9.84131H16.2244V16.4023H10.7568V9.84131Z" stroke="#555555" stroke-width="2" stroke-linejoin="round"/>
<path d="M13.4902 9.84155V6.56104M13.4902 19.6831V16.4026" stroke="#555555" stroke-width="2" stroke-linecap="round" stroke-linejoin="round"/>
</svg>
