<svg width="16" height="16" viewBox="0 0 16 16" fill="none" xmlns="http://www.w3.org/2000/svg">
<path d="M7.19238 0C11.1649 0 14.3856 3.21994 14.3857 7.19238C14.3857 8.90824 13.7831 10.4824 12.7803 11.7188L15.7812 14.7197L15.832 14.7764C16.0723 15.0708 16.0555 15.5056 15.7812 15.7803C15.5067 16.0549 15.0719 16.0713 14.7773 15.8311L14.7207 15.7803L11.7197 12.7793C10.4832 13.7826 8.90873 14.3857 7.19238 14.3857C3.21994 14.3856 0 11.1649 0 7.19238C0.00017341 3.22005 3.22005 0.000173406 7.19238 0ZM7.19238 1.5C4.04847 1.50017 1.50017 4.04847 1.5 7.19238C1.5 10.3364 4.04837 12.8856 7.19238 12.8857C10.3365 12.8857 12.8857 10.3365 12.8857 7.19238C12.8856 4.04837 10.3364 1.5 7.19238 1.5Z" fill="#7E7E7E"/>
</svg>
