<svg width="25" height="25" viewBox="0 0 25 25" fill="none" xmlns="http://www.w3.org/2000/svg">
<path d="M12.502 9.50098C11.397 9.50098 10.502 10.173 10.502 11.001C10.502 11.829 11.397 12.501 12.502 12.501C13.607 12.501 14.502 13.173 14.502 14.001C14.502 14.829 13.606 15.501 12.502 15.501M12.502 9.50098C13.372 9.50098 14.114 9.91798 14.388 10.501M12.502 9.50098V8.50098M12.502 15.501C11.632 15.501 10.89 15.084 10.616 14.501M12.502 15.501V16.501" stroke="white" stroke-width="1.5" stroke-linecap="round" stroke-linejoin="round"/>
<path d="M14 3.00102H12.5C8.022 3.00102 5.782 3.00102 4.391 4.39202C3 5.78302 3 8.02202 3 12.501C3 16.979 3 19.218 4.391 20.61C5.782 22 8.021 22 12.5 22C16.978 22 19.218 22 20.609 20.609C22 19.218 22 16.98 22 12.5V11M17 7.99902L21.176 3.82102M22 7.47702L21.882 4.38602C21.882 3.65702 21.447 3.20302 20.654 3.14602L17.53 2.99902" stroke="white" stroke-width="1.5" stroke-linecap="round" stroke-linejoin="round"/>
</svg>
