<svg width="24" height="24" viewBox="0 0 24 24" fill="none" xmlns="http://www.w3.org/2000/svg">
<path d="M14 2.22197C13.3533 2.08997 12.6867 2.02331 12 2.02197C6.477 2.02197 2 6.49397 2 12.011C2 17.528 6.477 22 12 22C17.523 22 22 17.528 22 12.011C21.9987 11.3263 21.932 10.6603 21.8 10.013" stroke="white" stroke-width="1.5" stroke-linecap="round" stroke-linejoin="round"/>
<path d="M12 9.014C10.895 9.014 10 9.685 10 10.513C10 11.34 10.895 12.011 12 12.011C13.105 12.011 14 12.681 14 13.509C14 14.337 13.105 15.008 12 15.008M12 9.014C12.87 9.014 13.612 9.431 13.886 10.014M12 9.014V8.015M12 15.008C11.13 15.008 10.388 14.591 10.114 14.008M12 15.008V16.007M21.995 2L17.82 6.174M16.996 2.521L17.114 5.609C17.114 6.337 17.549 6.791 18.342 6.848L21.466 6.995" stroke="#F7A600" stroke-width="1.5" stroke-linecap="round" stroke-linejoin="round"/>
</svg>
