<svg width="26" height="27" viewBox="0 0 26 27" fill="none" xmlns="http://www.w3.org/2000/svg">
<g clip-path="url(#clip0_794_13932)">
<path d="M13.2667 13.2788L10.7954 1.71279C9.05336 1.25891 7.43286 1.31369 6.10495 1.87321L5.97891 1.92799C5.91589 1.95538 5.85737 1.98276 5.79435 2.01407L3.56617 3.0392L3.82275 3.76305C3.6517 4.01738 3.49415 4.28735 3.35911 4.58472C1.31097 9.04913 4.08383 16.5615 9.55301 21.3624C12.3304 23.8001 15.2653 25.0678 17.75 25.146L18.2587 25.6977L20.2798 24.7509C20.5184 24.657 20.748 24.5513 20.9685 24.4261H20.973C21.9048 23.8979 22.661 23.084 23.1697 21.9807C23.4488 21.3703 23.6378 20.7012 23.7414 19.993L13.2622 13.2827L13.2667 13.2788Z" fill="#F7A600"/>
<path d="M13.2577 13.8071L10.7865 2.24111C9.04443 1.78723 7.42394 1.84201 6.09603 2.40153L5.96999 2.45631C5.90697 2.4837 5.84845 2.51108 5.78543 2.54239L3.55725 3.56752L3.81383 4.29137C3.64277 4.5457 3.48522 4.81567 3.35018 5.11304C1.29755 9.57745 4.07491 17.0899 9.54409 21.8908C12.3214 24.3284 15.2563 25.5961 17.7411 25.6744L17.6106 24.7392L16.5978 23.5498C16.8363 23.4559 18.3038 23.9997 18.5244 23.8745L16.9219 23.1663L17.3 23.225C18.2318 22.6968 16.7913 23.4989 17.3 22.3916C17.5791 21.7812 17.345 21.7538 17.453 21.0456L13.2622 13.8071H13.2577Z" fill="#FDECCC"/>
<path d="M18.1909 25.9874L17.6237 25.3692C14.9859 25.2479 12.06 23.8824 9.36815 21.5191C3.83595 16.6673 1.03159 9.02972 3.11573 4.49488C3.23277 4.23664 3.37231 3.98623 3.53886 3.72799L3.25527 2.91806L5.67702 1.80293C5.72203 1.77946 5.77605 1.75598 5.83006 1.7325L6.22619 1.55252L6.23519 1.56817C7.5766 1.07517 9.17459 1.04778 10.8761 1.48991L11.0292 1.52904L13.5094 13.1459L24.0337 19.8836L24.0157 20.0166C23.9031 20.764 23.7051 21.4526 23.426 22.0591C22.9173 23.1664 22.1611 24.0154 21.1753 24.5867L21.1213 24.618C20.9007 24.7432 20.6576 24.8567 20.3965 24.9584L18.1999 25.9874H18.1909ZM3.88547 3.14891L4.11054 3.78668L4.05202 3.87276C3.87196 4.13882 3.72792 4.40098 3.60188 4.66704C1.58976 9.04537 4.34461 16.4639 9.74177 21.1983C12.3796 23.5146 15.229 24.8332 17.7632 24.9153H17.8848L18.3304 25.4044L20.158 24.5476C20.401 24.4536 20.6171 24.3519 20.8107 24.2463L20.8377 24.2306C21.7515 23.7141 22.4582 22.9277 22.9308 21.8947C23.1784 21.3587 23.3585 20.7561 23.4665 20.0988L13.0278 13.4159L10.5655 1.89292C8.94952 1.50165 7.45056 1.56426 6.22168 2.07682L6.10465 2.12769C6.02362 2.1629 5.97411 2.18638 5.9291 2.20985L3.88547 3.14891Z" fill="#121212"/>
<path d="M10.8399 14.3978L8.36864 2.83182C5.06912 1.97494 2.21074 2.91399 0.932347 5.69984C-1.11578 10.1643 1.65707 17.6767 7.12625 22.4776C12.5999 27.2824 18.6948 27.5563 20.7474 23.0958C21.0265 22.4854 21.2156 21.8163 21.3191 21.1081L10.8399 14.3978Z" fill="#F7A600"/>
<path d="M10.7947 14.273L8.32345 2.70703C5.15897 1.88536 2.39963 2.72268 1.05371 5.25421C2.37712 4.71425 3.97511 4.66339 5.69914 5.11335L8.1704 16.6793L18.6496 23.3897C18.5461 24.0979 18.357 24.7669 18.0779 25.3773C18.0284 25.4869 17.9699 25.5925 17.9159 25.6982C19.1223 25.2052 20.0901 24.2974 20.7023 22.971C20.9813 22.3606 21.1704 21.6915 21.2739 20.9833L10.7947 14.273Z" fill="#FAE9CC"/>
<path d="M15.5841 26.5C12.8968 26.5 9.75931 25.1149 6.93694 22.6421C1.40924 17.7864 -1.39512 10.1488 0.689023 5.61395C1.97642 2.80853 4.87531 1.68558 8.44491 2.6129L8.59796 2.65202L11.0782 14.2689L21.598 21.0066L21.58 21.1396C21.4674 21.8869 21.2694 22.5717 20.9903 23.182C20.18 24.9467 18.7396 26.0579 16.822 26.3944C16.4214 26.4648 16.0072 26.5 15.5841 26.5ZM6.12219 2.75767C3.8625 2.75767 2.08445 3.81801 1.17967 5.78611C-0.832445 10.1644 1.9224 17.5829 7.31506 22.3173C10.457 25.0719 13.9726 26.4257 16.7185 25.9444C18.4515 25.6392 19.7614 24.6258 20.4996 23.0099C20.7472 22.4738 20.9272 21.8674 21.0353 21.2139L10.5966 14.531L8.13431 3.0159C7.4321 2.84375 6.75239 2.76158 6.11769 2.76158L6.12219 2.75767Z" fill="#121212"/>
<path d="M8.36816 2.83193L10.7944 1.71289L13.2657 13.2789L10.8394 14.3979L8.36816 2.83193Z" fill="#121212"/>
<path d="M21.3191 21.1082L23.7453 19.9891L13.2661 13.2788L10.8398 14.3978L21.3191 21.1082Z" fill="#F7A600"/>
<path d="M21.3191 21.1083L22.4894 20.58L12.834 14.3979L11.416 15.0514L21.3191 21.1083Z" fill="#FDECCC"/>
<path d="M24.4252 19.8445L13.5093 13.1459L10.9886 1.36084L8.07617 2.70681L10.5474 14.2728L10.6014 14.5271L10.8175 14.668L21.2967 21.3783L24.4207 19.8445H24.4252ZM8.66585 2.95723L10.6014 2.06122L12.9692 13.1538L11.0336 14.0498L8.66585 2.95723ZM13.2438 13.549L23.2503 19.958L21.3418 20.8383L11.3352 14.4293L13.2438 13.549Z" fill="#121212"/>
<path d="M25.6815 16.4801C25.4474 14.1442 24.5202 11.5853 23.0392 9.18289C21.9364 7.39087 20.5274 5.68492 18.8709 4.22939C16.8138 2.42563 14.6711 1.25964 12.686 0.743164L10.2598 1.8622L12.686 6.53007L14.3965 8.74076L15.1438 12.2387C15.1528 12.2739 15.1933 12.2935 15.2338 12.2779L15.2518 12.27C15.2158 12.2857 15.2158 12.3248 15.2518 12.3405H15.2473C15.2473 12.3405 15.2293 12.3483 15.2383 12.3561L19.1185 14.8407L23.2148 20.1385L25.641 19.0195C25.758 18.2174 25.7715 17.3644 25.6815 16.4762V16.4801Z" fill="#F7A600"/>
<path d="M25.7176 17.4074C25.4836 15.0715 24.5563 12.5125 23.0753 10.1101C21.9725 8.31812 20.5636 6.61217 18.907 5.15664C16.8499 3.35288 14.7073 2.18689 12.7221 1.67041L10.2959 2.78945L12.7221 7.45732L14.4327 9.668L15.1799 13.166C15.1889 13.2012 15.2294 13.2208 15.2699 13.2051L15.2879 13.1973C15.2519 13.2129 15.2519 13.2521 15.2879 13.2677H15.2834C15.2834 13.2677 15.2654 13.2755 15.2744 13.2834L19.1546 15.7679L23.2509 19.9506L25.6366 19.0155C25.7537 18.2134 25.8077 18.2838 25.7176 17.3956V17.4074Z" fill="#FDECCC"/>
<path d="M23.1289 20.4436L18.9246 15.0088L14.8914 12.4264L14.9229 12.3756C14.9049 12.3482 14.8914 12.3208 14.8869 12.2895L14.1487 8.83457L12.4697 6.66692L9.92188 1.7682L12.6632 0.504395L12.7668 0.531784C14.8644 1.07565 17.0431 2.30033 19.0642 4.0767C20.6982 5.51267 22.1161 7.19514 23.2775 9.08107C24.7629 11.4952 25.7127 14.1167 25.9468 16.4644C26.0368 17.3799 26.0233 18.2525 25.9018 19.0585L25.8838 19.1759L23.1289 20.4475V20.4436ZM16.1293 12.6456L19.3388 14.7193L23.3 19.845L25.3931 18.8785C25.4922 18.139 25.5012 17.3369 25.4156 16.4996C25.1861 14.2106 24.2588 11.6517 22.8048 9.29236C21.684 7.47294 20.2571 5.77874 18.6816 4.39363C16.755 2.70334 14.6978 1.52953 12.7127 0.993484L10.6016 1.96775L12.9243 6.43999L14.6528 8.70154L15.3911 12.1526L16.4939 12.6769L16.1248 12.6495L16.1293 12.6456ZM15.283 12.2778H15.2965L15.3911 12.1721H15.4001C15.4001 12.1721 15.3911 12.1565 15.3821 12.1447C15.364 12.1173 15.3325 12.0939 15.301 12.0782C15.256 12.0586 15.202 12.0547 15.1525 12.0665L15.355 12.1408L15.283 12.2817V12.2778Z" fill="#121212"/>
<path d="M12.8075 13.4043L20.613 10.3055C19.5101 8.51343 18.1012 6.80748 16.4447 5.35195C14.3875 3.54819 12.2449 2.3822 10.2598 1.86572L12.7175 13.3613C12.7265 13.3965 12.767 13.4161 12.8075 13.4004V13.4043Z" fill="#F9E8CC"/>
<path d="M12.6313 13.4748C12.6403 13.51 12.6808 13.5295 12.7213 13.5139L19.0773 10.9902C18.2716 9.96896 17.3668 9.00252 16.372 8.12998C14.5219 6.50229 12.5953 5.40282 10.7812 4.81982L12.6313 13.4748Z" fill="#F7A600"/>
<path d="M12.7803 13.6391C12.7262 13.6391 12.6767 13.6274 12.6272 13.6078C12.5372 13.5648 12.4742 13.4944 12.4562 13.4044L9.92188 1.54102L10.336 1.65057C12.4336 2.19444 14.6123 3.42303 16.6334 5.19549C18.2674 6.63146 19.6854 8.31393 20.8467 10.1999L20.9818 10.4151L12.9198 13.6157C12.8748 13.6313 12.8298 13.643 12.7848 13.643L12.7803 13.6391ZM10.6016 2.20618L12.9288 13.1031L20.2436 10.1999C19.1452 8.46261 17.7678 6.84666 16.2553 5.51634C14.4323 3.91603 12.4877 2.77743 10.6016 2.20618Z" fill="#121212"/>
<path d="M23.2148 20.1458C23.3318 19.3437 23.3453 18.4907 23.2553 17.6025L12.8211 13.4707C12.8211 13.4707 12.8031 13.4785 12.8121 13.4864L23.2148 20.1497V20.1458Z" fill="#F7A600"/>
<path d="M23.4173 20.5605L12.4609 13.545L12.6995 13.1772L12.9291 13.2594L23.5028 17.446L23.5163 17.5791C23.6064 18.4946 23.5929 19.3672 23.4758 20.1732L23.4173 20.5605ZM14.9322 14.5545L22.9987 19.7232C23.0617 19.1011 23.0617 18.4398 22.9987 17.7551L14.9277 14.5584L14.9322 14.5545Z" fill="#121212"/>
<path d="M12.8255 13.4711L23.2507 17.6029C23.0166 15.267 22.0893 12.7081 20.6084 10.3057L12.821 13.3967C12.7849 13.4124 12.7849 13.4554 12.821 13.4711H12.8255Z" fill="#F7A600"/>
<path d="M14.1797 14.1479L22.4442 17.4424C21.9806 15.0713 21.6115 14.0775 20.3376 11.8237L14.1797 14.1479Z" fill="#FDECCC"/>
<path d="M23.5565 17.9746L12.5641 13.6197L12.5371 13.2872L12.7172 13.1893L20.7296 10.0083L20.8467 10.2C22.3321 12.6142 23.2819 15.2357 23.516 17.5833L23.5565 17.9746ZM13.3699 13.4358L22.9443 17.2273C22.6607 15.1066 21.801 12.7746 20.4956 10.603L13.3699 13.4319V13.4358Z" fill="#121212"/>
<path d="M22.1299 13.2792L24.5606 12.1719L25.5014 15.2747L25.6995 18.6044L25.4744 19.1013L23.4668 20.0951L23.1607 16.8671L22.1299 13.2792Z" fill="#121212"/>
<path d="M19.6621 25.0367L21.6022 24.0037L22.8581 22.5599L23.5558 20.8109L23.7449 19.9893L21.3186 21.1083L20.4183 23.765L19.6621 25.0367Z" fill="#121212"/>
</g>
<defs>
<clipPath id="clip0_794_13932">
<rect width="26" height="26" fill="white" transform="translate(0 0.5)"/>
</clipPath>
</defs>
</svg>
