<svg width="24" height="24" viewBox="0 0 24 24" fill="none" xmlns="http://www.w3.org/2000/svg">
<path d="M14.001 9.33873H14.0282C14.6126 9.35476 15.08 9.84373 15.08 10.4449C15.08 10.958 14.7411 11.3868 14.2814 11.5151V11.964C14.2814 12.1243 14.1568 12.2526 14.001 12.2526C13.8451 12.2526 13.7205 12.1243 13.7205 11.964V11.5151C13.4916 11.4517 13.2894 11.3125 13.1451 11.1191C13.0007 10.9257 12.9223 10.6888 12.9219 10.4449C12.9219 10.2846 13.0465 10.1564 13.2024 10.1564C13.3582 10.1564 13.4828 10.2846 13.4828 10.4449C13.4828 10.7415 13.7127 10.978 13.9971 10.978C14.2814 10.978 14.5152 10.7375 14.5152 10.4449C14.5152 10.1524 14.2814 9.91187 13.9971 9.91187H13.9698C13.6895 9.90405 13.4233 9.78412 13.2276 9.57756C13.032 9.371 12.9223 9.0941 12.9219 8.80566C12.9219 8.29263 13.2608 7.86378 13.7205 7.73552V7.28662C13.7205 7.1263 13.8451 6.99805 14.001 6.99805C14.1568 6.99805 14.2814 7.1263 14.2814 7.28662V7.73552C14.7411 7.86378 15.08 8.29263 15.08 8.80566C15.08 8.96598 14.9554 9.09424 14.7996 9.09424C14.6437 9.09424 14.5191 8.96598 14.5191 8.80566C14.5191 8.51307 14.2853 8.27259 14.001 8.27259C13.7166 8.27259 13.4828 8.51307 13.4828 8.80566C13.4828 9.09824 13.7166 9.33873 14.001 9.33873Z" fill="#F7A600"/>
<path d="M11.9342 3.62927L13.0195 4.93588L12.9022 5.07055C10.6685 5.58598 9 7.63848 9 10.0922C9 12.2493 10.7016 14 12.7982 14H15.2018C17.2984 14 19 12.2497 19 10.0926C19.0039 7.63848 17.3354 5.58598 15.1017 5.07055C15.1108 4.98585 15.096 4.90023 15.0588 4.82406L15.9821 3.73668L16.0417 3.64209C16.1113 3.48591 16.1291 3.31053 16.0924 3.14293C16.0556 2.97532 15.9664 2.82477 15.8384 2.71443C15.7104 2.60409 15.5507 2.54007 15.3839 2.53221C15.217 2.52436 15.0523 2.5731 14.9151 2.67095L14.5867 2.27015C14.513 2.18533 14.4228 2.11744 14.3219 2.07089C14.221 2.02435 14.1118 2.00019 14.0012 2C13.8907 1.99981 13.7813 2.02359 13.6803 2.0698C13.5792 2.116 13.4888 2.18358 13.4149 2.26815L13.0709 2.66334C12.934 2.56345 12.7689 2.51276 12.6012 2.51911C12.4334 2.52546 12.2724 2.58849 12.143 2.69845C12.0136 2.80842 11.923 2.95919 11.8853 3.12744C11.8475 3.2957 11.8647 3.47207 11.9342 3.62927ZM13.4141 4.18438L12.7534 3.39881C12.9069 3.47477 13.0806 3.4963 13.2472 3.46005C13.4139 3.42379 13.5642 3.33179 13.6747 3.19841L13.9864 2.78238L14.3323 3.20402C14.4401 3.33307 14.5856 3.42281 14.7471 3.45986C14.9086 3.49691 15.0773 3.47929 15.2283 3.40963L14.5707 4.18438H13.4141ZM9.77912 10.0922C9.77912 7.69219 11.6693 5.7475 14.0019 5.7475C16.3346 5.7475 18.2248 7.69219 18.2209 10.0914V10.0922C18.2206 10.9159 17.9024 11.7058 17.3363 12.2883C16.7701 12.8707 16.0024 13.1981 15.2018 13.1984H12.7982C11.9976 13.1981 11.2299 12.8707 10.6637 12.2883C10.0976 11.7058 9.77943 10.9159 9.77912 10.0922Z" fill="#F7A600"/>
<path d="M7.94595 19.9485L8.10414 20.0986C8.31197 20.2958 8.31197 20.6269 8.10414 20.8241L7.20899 21.6733C7.01608 21.8563 6.71365 21.8563 6.52074 21.6733L2.38234 17.7472C2.17452 17.55 2.17452 17.2189 2.38234 17.0217L3.27749 16.1725C3.47041 15.9895 3.77283 15.9895 3.96575 16.1725L7.94595 19.9485ZM7.94595 19.9485L8.8236 19.5322C8.95754 19.4687 9.10393 19.4357 9.25218 19.4357H15.5977C16.9004 19.4357 18.1214 18.8014 18.8704 17.7355L21.7657 13.6153C21.9159 13.4016 21.9823 13.135 21.8963 12.8884C21.8136 12.6513 21.6752 12.3732 21.4595 12.2563C21.2406 12.1376 20.8976 12.1607 20.6568 12.1985C20.4731 12.2274 20.3116 12.3287 20.1854 12.4655L18.4865 14.3076L16.5946 16.3588M16.5946 16.3588H12.2703M16.5946 16.3588C16.5946 16.3588 17.4337 15.3868 17.1351 14.8204C17.071 14.6988 16.9439 14.5757 16.829 14.4807C16.6823 14.3592 16.4934 14.3076 16.3029 14.3076H12.56C12.3707 14.3076 12.1854 14.2539 12.0254 14.1527L10.8935 13.4368C10.7335 13.3356 10.5482 13.2819 10.359 13.2819H7.80429C7.54818 13.2819 7.30183 13.3802 7.11603 13.5565L4.16216 16.3588" stroke="white"/>
<path d="M3.27749 16.1727L2.38234 17.0219C2.17452 17.2191 2.17452 17.5502 2.38234 17.7474L6.52074 21.6735C6.71365 21.8565 7.01608 21.8565 7.20899 21.6735L8.10414 20.8243C8.31197 20.6271 8.31197 20.296 8.10414 20.0988L3.96575 16.1727C3.77283 15.9896 3.47041 15.9896 3.27749 16.1727Z" stroke="#F7A600"/>
</svg>
