<svg width="16" height="16" viewBox="0 0 16 16" fill="none" xmlns="http://www.w3.org/2000/svg">
<path d="M9.20935 2.00278L10.4412 4.48364C10.6092 4.82899 11.0571 5.16024 11.4351 5.22367L13.6679 5.59721C15.0957 5.83684 15.4317 6.87993 14.4028 7.90892L12.667 9.6568C12.373 9.95281 12.212 10.5237 12.303 10.9325L12.7999 13.0962C13.1919 14.8088 12.289 15.4713 10.7842 14.5762L8.6914 13.3288C8.31344 13.1032 7.69051 13.1032 7.30556 13.3288L5.21279 14.5762C3.71495 15.4713 2.80505 14.8018 3.19701 13.0962L3.69395 10.9325C3.78494 10.5237 3.62396 9.95281 3.33 9.6568L1.59419 7.90892C0.5723 6.87993 0.901264 5.83684 2.32911 5.59721L4.56186 5.22367C4.93282 5.16024 5.38077 4.82899 5.54875 4.48364L6.78061 2.00278C7.45254 0.656627 8.54442 0.656627 9.20935 2.00278Z" stroke="#7E7E7E" stroke-linecap="round" stroke-linejoin="round"/>
</svg>
