<svg width="24" height="25" viewBox="0 0 24 25" fill="none" xmlns="http://www.w3.org/2000/svg">
<rect x="0.5" y="1" width="23" height="23" rx="1.5" stroke="#303030"/>
<path d="M11.3704 6.84533C11.4345 6.74026 11.5265 6.65307 11.637 6.59248C11.7475 6.53189 11.8725 6.5 12 6.5C12.1275 6.5 12.2529 6.53189 12.3634 6.59248C12.474 6.65307 12.5659 6.74026 12.6301 6.84533L14.2601 9.51499L17.4258 10.1693C17.5503 10.1951 17.6656 10.2517 17.7601 10.3332C17.8546 10.4148 17.925 10.5185 17.9644 10.6342C18.0037 10.7498 18.0106 10.8733 17.9844 10.9922C17.9581 11.1112 17.8997 11.2215 17.8148 11.3122L15.6569 13.6163L15.9835 16.6905C15.9964 16.8115 15.9758 16.9337 15.9237 17.0447C15.8716 17.1558 15.7899 17.2519 15.6867 17.3234C15.5836 17.3949 15.4625 17.4394 15.3357 17.4523C15.2089 17.4652 15.0808 17.4462 14.9641 17.3971L12.0002 16.1508L9.03636 17.3971C8.91967 17.4462 8.79152 17.4652 8.66471 17.4523C8.5379 17.4394 8.41687 17.3949 8.31369 17.3234C8.21052 17.2519 8.12881 17.1558 8.07673 17.0447C8.02466 16.9337 8.00403 16.8115 8.01691 16.6905L8.34351 13.6163L6.18564 11.3128C6.10063 11.2221 6.04203 11.1117 6.01571 10.9927C5.98938 10.8736 5.99624 10.7501 6.03561 10.6344C6.07498 10.5186 6.14547 10.4148 6.24006 10.3332C6.33465 10.2516 6.45001 10.1951 6.57464 10.1693L9.74029 9.51499L11.3704 6.84533Z" fill="white"/>
</svg>
