<svg width="24" height="24" viewBox="0 0 24 24" fill="none" xmlns="http://www.w3.org/2000/svg">
<rect x="0.5" y="0.5" width="23" height="23" rx="1.5" stroke="#303030"/>
<path d="M12.3455 17.6908L12.339 17.6919L12.2976 17.7114L12.286 17.7136L12.2778 17.7114L12.2364 17.6919C12.2302 17.6901 12.2255 17.691 12.2224 17.6947L12.2201 17.7003L12.2102 17.9384L12.2131 17.9495L12.2189 17.9568L12.2796 17.998L12.2883 18.0002L12.2953 17.998L12.356 17.9568L12.363 17.9479L12.3653 17.9384L12.3554 17.7008C12.3538 17.6949 12.3505 17.6916 12.3455 17.6908ZM12.5 17.6279L12.4924 17.6291L12.3845 17.6808L12.3787 17.6864L12.377 17.6925L12.3875 17.9317L12.3904 17.9384L12.395 17.9423L12.5123 17.9941C12.5196 17.9959 12.5253 17.9944 12.5292 17.9896L12.5315 17.9818L12.5117 17.6402C12.5097 17.6335 12.5058 17.6294 12.5 17.6279ZM12.083 17.6291C12.0804 17.6276 12.0774 17.6271 12.0744 17.6277C12.0715 17.6283 12.0689 17.63 12.0673 17.6324L12.0638 17.6402L12.0439 17.9818C12.0443 17.9885 12.0476 17.9929 12.0539 17.9952L12.0626 17.9941L12.1798 17.9423L12.1857 17.9379L12.188 17.9317L12.1979 17.6925L12.1962 17.6858L12.1903 17.6802L12.083 17.6291Z" fill="#F7A600"/>
<path d="M11.3704 6.34533C11.4345 6.24026 11.5265 6.15307 11.637 6.09248C11.7475 6.03189 11.8725 6 12 6C12.1275 6 12.2529 6.03189 12.3634 6.09248C12.474 6.15307 12.5659 6.24026 12.6301 6.34533L14.2601 9.01499L17.4258 9.66933C17.5503 9.69515 17.6656 9.75165 17.7601 9.83321C17.8546 9.91477 17.925 10.0185 17.9644 10.1342C18.0037 10.2498 18.0106 10.3733 17.9844 10.4922C17.9581 10.6112 17.8997 10.7215 17.8148 10.8122L15.6569 13.1163L15.9835 16.1905C15.9964 16.3115 15.9758 16.4337 15.9237 16.5447C15.8716 16.6558 15.7899 16.7519 15.6867 16.8234C15.5836 16.8949 15.4625 16.9394 15.3357 16.9523C15.2089 16.9652 15.0808 16.9462 14.9641 16.8971L12.0002 15.6508L9.03636 16.8971C8.91967 16.9462 8.79152 16.9652 8.66471 16.9523C8.5379 16.9394 8.41687 16.8949 8.31369 16.8234C8.21052 16.7519 8.12881 16.6558 8.07673 16.5447C8.02466 16.4337 8.00403 16.3115 8.01691 16.1905L8.34351 13.1163L6.18564 10.8128C6.10063 10.7221 6.04203 10.6117 6.01571 10.4927C5.98938 10.3736 5.99624 10.2501 6.03561 10.1344C6.07498 10.0186 6.14547 9.91479 6.24006 9.83319C6.33465 9.75159 6.45001 9.69509 6.57464 9.66933L9.74029 9.01499L11.3704 6.34533Z" fill="#F7A600"/>
</svg>
