<svg width="16" height="16" viewBox="0 0 16 16" fill="none" xmlns="http://www.w3.org/2000/svg">
<rect width="16" height="16" fill="#F5F5F5"/>
<g id="Trading">
<path d="M-1501 -574C-1501 -575.105 -1500.1 -576 -1499 -576H2179C2180.1 -576 2181 -575.105 2181 -574V4272C2181 4273.1 2180.1 4274 2179 4274H-1499C-1500.1 4274 -1501 4273.1 -1501 4272V-574Z" fill="#303030"/>
<path d="M-1499 -576V-575H2179V-576V-577H-1499V-576ZM2181 -574H2180V4272H2181H2182V-574H2181ZM2179 4274V4273H-1499V4274V4275H2179V4274ZM-1501 4272H-1500V-574H-1501H-1502V4272H-1501ZM-1499 4274V4273C-1499.55 4273 -1500 4272.55 -1500 4272H-1501H-1502C-1502 4273.66 -1500.66 4275 -1499 4275V4274ZM2181 4272H2180C2180 4272.55 2179.55 4273 2179 4273V4274V4275C2180.66 4275 2182 4273.66 2182 4272H2181ZM2179 -576V-575C2179.55 -575 2180 -574.552 2180 -574H2181H2182C2182 -575.657 2180.66 -577 2179 -577V-576ZM-1499 -576V-577C-1500.66 -577 -1502 -575.657 -1502 -574H-1501H-1500C-1500 -574.552 -1499.55 -575 -1499 -575V-576Z" fill="black" fill-opacity="0.1"/>
<g id="Charts(Depth)" clip-path="url(#clip0_0_1)">
<rect width="428" height="1078" transform="translate(-393 -103)" fill="#121212"/>
<g id="Component 198">
<path id="Vector" d="M9.20934 2.00278L10.4412 4.48364C10.6092 4.82899 11.0571 5.16024 11.4351 5.22367L13.6679 5.59721C15.0957 5.83684 15.4317 6.87993 14.4028 7.90892L12.667 9.6568C12.373 9.95281 12.212 10.5237 12.303 10.9325L12.7999 13.0962C13.1919 14.8088 12.289 15.4713 10.7842 14.5762L8.6914 13.3288C8.31344 13.1032 7.69051 13.1032 7.30556 13.3288L5.21279 14.5762C3.71495 15.4713 2.80505 14.8018 3.19701 13.0962L3.69395 10.9325C3.78494 10.5237 3.62396 9.95281 3.33 9.6568L1.59419 7.90892C0.5723 6.87993 0.901264 5.83684 2.32911 5.59721L4.56186 5.22367C4.93282 5.16024 5.38077 4.82899 5.54875 4.48364L6.78061 2.00278C7.45254 0.656627 8.54442 0.656627 9.20934 2.00278Z" fill="#F7A600" stroke="#F7A600" stroke-linecap="round" stroke-linejoin="round"/>
</g>
</g>
</g>
<defs>
<clipPath id="clip0_0_1">
<rect width="428" height="1078" fill="white" transform="translate(-393 -103)"/>
</clipPath>
</defs>
</svg>
