<svg width="20" height="21" viewBox="0 0 20 21" fill="none" xmlns="http://www.w3.org/2000/svg">
<path d="M15 8L14.3 14.9983C14.1942 16.0592 14.1417 16.5892 13.9 16.99C13.688 17.3428 13.3763 17.625 13.0042 17.8008C12.5817 18 12.05 18 10.9833 18H9.01667C7.95083 18 7.41833 18 6.99583 17.8C6.62337 17.6243 6.31134 17.3421 6.09917 16.9892C5.85917 16.5892 5.80583 16.0592 5.69917 14.9983L5 8M11.25 13.4167V9.25M8.75 13.4167V9.25M3.75 5.91667H7.59583M7.59583 5.91667L7.9175 3.69C8.01083 3.285 8.3475 3 8.73417 3H11.2658C11.6525 3 11.9883 3.285 12.0825 3.69L12.4042 5.91667M7.59583 5.91667H12.4042M12.4042 5.91667H16.25" stroke="#EF4D42" stroke-width="1.5" stroke-linecap="round" stroke-linejoin="round"/>
</svg>
