<svg width="7" height="10" viewBox="0 0 7 10" fill="none" xmlns="http://www.w3.org/2000/svg">
<path fill-rule="evenodd" clip-rule="evenodd" d="M6.86332 6.14276C6.68107 5.95922 6.49091 6.0051 6.20335 6.0051L3.5 6.0051H0.79665C0.381818 6.0051 0.318928 5.95922 0.136684 6.14276C-0.0455612 6.3263 -0.0455612 6.62388 0.136684 6.80742L3.17002 9.86234C3.35226 10.0459 3.64774 10.0459 3.82998 9.86234L6.86332 6.80742C7.04556 6.62388 7.04556 6.3263 6.86332 6.14276Z" fill="white" fill-opacity="0.5"/>
<path fill-rule="evenodd" clip-rule="evenodd" d="M0.136684 3.85724C0.318928 4.04078 0.509092 3.9949 0.79665 3.9949L3.5 3.9949L6.20335 3.9949C6.61818 3.9949 6.68107 4.04078 6.86332 3.85724C7.04556 3.6737 7.04556 3.37612 6.86332 3.19258L3.82998 0.137656C3.64774 -0.0458858 3.35226 -0.0458857 3.17002 0.137656L0.136684 3.19258C-0.0455609 3.37612 -0.0455609 3.6737 0.136684 3.85724Z" fill="white" fill-opacity="0.5"/>
</svg>
