<svg width="72" height="73" viewBox="0 0 72 73" fill="none" xmlns="http://www.w3.org/2000/svg">
<path d="M63.5114 46.6942L45.7754 17.1322C43.4474 13.2532 39.8864 11.0332 35.9984 11.0332C32.1104 11.0332 28.5494 13.2532 26.2214 17.1262L8.48545 46.6942C6.12745 50.6212 5.86945 54.8092 7.78045 58.1842C9.68845 61.5622 13.4144 63.5002 17.9984 63.5002H53.9984C58.5825 63.5002 62.3084 61.5622 64.2164 58.1872C66.1245 54.8122 65.8694 50.6242 63.5114 46.6942ZM35.9984 53.1472C33.4364 53.1472 31.3484 51.0622 31.3484 48.5002C31.3484 45.9352 33.4334 43.8472 35.9984 43.8472C38.5634 43.8472 40.6484 45.9352 40.6484 48.5002C40.6484 51.0622 38.5604 53.1472 35.9984 53.1472ZM40.8974 30.8752C40.8644 30.9682 36.6944 41.2792 36.6944 41.2792C36.5804 41.5612 36.3044 41.7472 36.0014 41.7472C35.6984 41.7472 35.4224 41.5612 35.3084 41.2792L31.1354 30.9652C30.885 30.3401 30.7538 29.6736 30.7484 29.0002C30.7484 26.1052 33.1034 23.7502 35.9984 23.7502C36.8487 23.7524 37.6857 23.9608 38.4377 24.3576C39.1897 24.7544 39.8343 25.3277 40.316 26.0283C40.7977 26.7289 41.1023 27.5359 41.2036 28.3801C41.3048 29.2243 41.1998 30.0805 40.8974 30.8752Z" fill="#EF4D42"/>
</svg>
