<svg width="30" height="30" viewBox="0 0 30 30" fill="none" xmlns="http://www.w3.org/2000/svg">
<path d="M0 8.76107L0.55147 12.1142H4.08088L4.401 11.331L8.58138 8.88883L10.6004 7.7111L12.9824 6.31896L15 5.13975L19.3996 7.70963L21.1951 8.75961L25.5801 11.3207L25.5961 11.3295L25.6004 11.331V13.8773H30V8.76107L29.9956 8.75961L25.5961 6.18826L19.3996 2.56988L16.4791 0.863478L15 0L13.5209 0.863478L10.6004 2.56988L0 8.76107Z" fill="white"/>
<path d="M9.64222e-09 12.6697L-3.18193e-07 5.33446L7.5 12.6697L9.64222e-09 12.6697Z" fill="white"/>
<path d="M30 21.2389L29.4485 17.8858L25.9191 17.8858L25.599 18.669L21.4186 21.1112L19.3996 22.2889L17.0176 23.681L15 24.8602L10.6004 22.2904L8.80492 21.2404L4.41988 18.6793L4.40391 18.6705L4.39955 18.669L4.39955 16.1227L-1.20396e-06 16.1227L-7.6009e-07 21.2389L0.0043538 21.2404L4.40391 23.8117L10.6004 27.4301L13.5209 29.1365L15 30L16.4791 29.1365L19.3996 27.4301L30 21.2389Z" fill="white"/>
<path d="M30 17.3303L30 24.4433L22.5 17.3303L30 17.3303Z" fill="white"/>
</svg>
