<svg width="24" height="24" viewBox="0 0 24 24" fill="none" xmlns="http://www.w3.org/2000/svg">
<path d="M9.134 2.5C6.468 2.56 4.911 2.815 3.847 3.875C2.915 4.803 2.604 6.108 2.5 8.2M14.866 2.5C17.532 2.56 19.089 2.815 20.153 3.875C21.085 4.803 21.396 6.108 21.5 8.2M14.866 21.5C17.532 21.44 19.089 21.185 20.153 20.125C21.085 19.197 21.396 17.892 21.5 15.8M9.134 21.5C6.468 21.44 4.911 21.185 3.847 20.125C2.915 19.197 2.604 17.892 2.5 15.8M7.5 17C9.832 14.558 14.143 14.443 16.5 17M14.495 9.5C14.495 10.88 13.375 12 11.992 12C11.6634 12.0005 11.3378 11.9362 11.0341 11.8108C10.7303 11.6854 10.4542 11.5014 10.2216 11.2692C9.98908 11.037 9.80457 10.7612 9.67868 10.4576C9.5528 10.1541 9.488 9.82864 9.488 9.5C9.488 8.12 10.608 7 11.992 7C12.3206 6.99961 12.646 7.06398 12.9496 7.18944C13.2533 7.3149 13.5292 7.49899 13.7617 7.73117C13.9942 7.96336 14.1786 8.23909 14.3044 8.5426C14.4302 8.84611 14.495 9.17144 14.495 9.5Z" stroke="white" stroke-width="1.5" stroke-linecap="round" stroke-linejoin="round"/>
<rect width="14" height="14" transform="translate(5 5)" fill="#121212"/>
<path fill-rule="evenodd" clip-rule="evenodd" d="M9.52018 9.37516C9.52018 9.04959 9.58431 8.72721 9.7089 8.42643C9.83349 8.12564 10.0161 7.85234 10.2463 7.62213C10.4765 7.39192 10.7498 7.2093 11.0506 7.08471C11.3514 6.96012 11.6738 6.896 11.9993 6.896C12.3249 6.896 12.6473 6.96012 12.9481 7.08471C13.2489 7.2093 13.5222 7.39192 13.7524 7.62213C13.9826 7.85234 14.1652 8.12564 14.2898 8.42643C14.4144 8.72721 14.4785 9.04959 14.4785 9.37516C14.4785 10.0327 14.2173 10.6633 13.7524 11.1282C13.2875 11.5931 12.6569 11.8543 11.9993 11.8543C11.3418 11.8543 10.7112 11.5931 10.2463 11.1282C9.78138 10.6633 9.52018 10.0327 9.52018 9.37516ZM11.9993 7.771C11.5739 7.771 11.1659 7.94001 10.865 8.24085C10.5642 8.54168 10.3952 8.94971 10.3952 9.37516C10.3952 9.80061 10.5642 10.2086 10.865 10.5095C11.1659 10.8103 11.5739 10.9793 11.9993 10.9793C12.4248 10.9793 12.8328 10.8103 13.1337 10.5095C13.4345 10.2086 13.6035 9.80061 13.6035 9.37516C13.6035 8.94971 13.4345 8.54168 13.1337 8.24085C12.8328 7.94001 12.4248 7.771 11.9993 7.771ZM9.66602 13.6043C9.31792 13.6043 8.98408 13.7426 8.73794 13.9888C8.4918 14.2349 8.35352 14.5687 8.35352 14.9168V15.6098C8.35352 15.6203 8.3611 15.6297 8.3716 15.6314C10.7743 16.0234 13.2249 16.0234 15.6271 15.6314C15.6321 15.6303 15.6365 15.6276 15.6398 15.6237C15.643 15.6198 15.6449 15.6149 15.6452 15.6098V14.9168C15.6452 14.5687 15.5069 14.2349 15.2608 13.9888C15.0146 13.7426 14.6808 13.6043 14.3327 13.6043H14.1343C14.1187 13.6046 14.1032 13.607 14.0883 13.6113L13.5837 13.7764C12.5542 14.1126 11.4445 14.1126 10.415 13.7764L9.90985 13.6113C9.89525 13.6071 9.88015 13.6047 9.86493 13.6043H9.66602ZM7.47852 14.9168C7.47852 14.3367 7.70898 13.7803 8.11922 13.37C8.52946 12.9598 9.08585 12.7293 9.66602 12.7293H9.86435C9.97324 12.7297 10.079 12.7464 10.1817 12.7795L10.6868 12.9446C11.5397 13.223 12.459 13.223 13.3118 12.9446L13.817 12.7795C13.9191 12.7462 14.0264 12.7293 14.1338 12.7293H14.3327C14.9128 12.7293 15.4692 12.9598 15.8795 13.37C16.2897 13.7803 16.5202 14.3367 16.5202 14.9168V15.6098C16.5202 16.0497 16.2017 16.4242 15.7677 16.4947C13.272 16.9021 10.7267 16.9021 8.23102 16.4947C8.02112 16.4602 7.83029 16.3523 7.69249 16.1903C7.5547 16.0282 7.47887 15.8225 7.47852 15.6098V14.9168Z" fill="#F7A600"/>
</svg>
