<svg width="18" height="18" viewBox="0 0 18 18" fill="none" xmlns="http://www.w3.org/2000/svg">
<path d="M8.99944 10.1252V6.75023M3.57582 15.1877H14.4231C15.2758 15.1877 15.8181 14.2765 15.4125 13.5267L9.98888 3.51416C9.56307 2.72835 8.43582 2.72835 8.01001 3.51416L2.58694 13.5267C2.18025 14.2765 2.72307 15.1877 3.57582 15.1877Z" stroke="#EF4D42" stroke-linecap="round"/>
<mask id="mask0_5883_14656" style="mask-type:luminance" maskUnits="userSpaceOnUse" x="8" y="11" width="2" height="2">
<path d="M9.84375 12.0938C9.84375 12.3175 9.75485 12.5321 9.59662 12.6904C9.43839 12.8486 9.22378 12.9375 9 12.9375C8.77622 12.9375 8.56161 12.8486 8.40338 12.6904C8.24514 12.5321 8.15625 12.3175 8.15625 12.0938C8.15625 11.87 8.24514 11.6554 8.40338 11.4971C8.56161 11.3389 8.77622 11.25 9 11.25C9.22378 11.25 9.43839 11.3389 9.59662 11.4971C9.75485 11.6554 9.84375 11.87 9.84375 12.0938Z" fill="white"/>
</mask>
<g mask="url(#mask0_5883_14656)">
<path d="M9.84375 12.0938C9.84375 12.3175 9.75485 12.5321 9.59662 12.6904C9.43839 12.8486 9.22378 12.9375 9 12.9375C8.77622 12.9375 8.56161 12.8486 8.40338 12.6904C8.24514 12.5321 8.15625 12.3175 8.15625 12.0938C8.15625 11.87 8.24514 11.6554 8.40338 11.4971C8.56161 11.3389 8.77622 11.25 9 11.25C9.22378 11.25 9.43839 11.3389 9.59662 11.4971C9.75485 11.6554 9.84375 11.87 9.84375 12.0938Z" fill="#EF4D42" stroke="#EF4D42"/>
</g>
</svg>
